<?xml version="1.0" encoding="UTF-8" standalone="no"?>
<!DOCTYPE svg PUBLIC "-//W3C//DTD SVG 1.1//EN" "http://www.w3.org/Graphics/SVG/1.1/DTD/svg11.dtd">
<svg width="100%" height="100%" viewBox="0 0 6400 1720" version="1.1" xmlns="http://www.w3.org/2000/svg" xmlns:xlink="http://www.w3.org/1999/xlink" xml:space="preserve" xmlns:serif="http://www.serif.com/" style="fill-rule:evenodd;clip-rule:evenodd;stroke-linejoin:round;stroke-miterlimit:2;">
    <g transform="matrix(3.41044,0,0,3.41044,-2822.73,-109.398)">
        <g>
            <g transform="matrix(0.447452,0,0,0.447452,1124.89,-24.4505)">
                <path d="M618.162,613.046L618.162,454.39L643.89,454.39L643.89,428.662L788.61,428.662L788.61,484.138L685.966,484.138L685.966,583.298L788.61,583.298L788.61,638.774L643.89,638.774L643.89,613.046L618.162,613.046Z" style="fill:white;fill-rule:nonzero;"/>
                <path d="M602.164,438.393L627.892,438.393L627.892,412.665L804.607,412.665L804.607,500.136L701.963,500.136L701.963,567.301L804.607,567.301L804.607,654.772L627.892,654.772L627.892,629.044L602.164,629.044L602.164,438.393ZM618.162,613.046L643.89,613.046L643.89,638.774L788.61,638.774L788.61,583.298L685.966,583.298L685.966,484.138L788.61,484.138L788.61,428.662L643.89,428.662L643.89,454.39L618.162,454.39L618.162,613.046Z"/>
                <path d="M974.066,428.662L974.066,548.726L955.842,548.726L955.842,558.642L974.066,558.642L974.066,638.774L905.458,638.774L905.458,562.662L882.142,562.662L882.142,638.774L813.534,638.774L813.534,428.662L974.066,428.662ZM882.946,504.774L904.654,504.774L904.654,484.942L882.946,484.942L882.946,504.774Z" style="fill:white;fill-rule:nonzero;"/>
                <path d="M990.063,654.772L797.536,654.772L797.536,412.665L990.063,412.665L990.063,654.772ZM974.066,428.662L813.534,428.662L813.534,638.774L882.142,638.774L882.142,562.662L905.458,562.662L905.458,638.774L974.066,638.774L974.066,558.642L955.842,558.642L955.842,548.726L974.066,548.726L974.066,428.662ZM882.946,504.774L882.946,484.942L904.654,484.942L904.654,504.774L882.946,504.774Z"/>
                <path d="M1184.18,428.662L1184.18,638.774L1002.21,638.774L1002.21,428.662L1184.18,428.662ZM1070.01,582.494L1116.37,582.494L1116.37,484.942L1070.01,484.942L1070.01,582.494Z" style="fill:white;fill-rule:nonzero;"/>
                <path d="M1200.17,654.772L986.208,654.772L986.208,412.665L1200.17,412.665L1200.17,654.772ZM1184.18,428.662L1002.21,428.662L1002.21,638.774L1184.18,638.774L1184.18,428.662ZM1070.01,582.494L1070.01,484.942L1116.37,484.942L1116.37,582.494L1070.01,582.494ZM1086.01,566.497C1086.01,566.497 1100.38,566.497 1100.38,566.497L1100.38,500.94C1100.38,500.94 1086.01,500.94 1086.01,500.94L1086.01,566.497Z"/>
                <path d="M1309.87,583.298L1309.87,561.858L1212.32,561.858L1212.32,428.662L1377.67,428.662L1377.67,484.138L1280.12,484.138L1280.12,505.578L1377.67,505.578L1377.67,638.774L1212.32,638.774L1212.32,583.298L1309.87,583.298Z" style="fill:white;fill-rule:nonzero;"/>
                <path d="M1393.67,654.772L1196.32,654.772L1196.32,412.665L1393.67,412.665L1393.67,654.772ZM1309.87,583.298L1212.32,583.298L1212.32,638.774L1377.67,638.774L1377.67,505.578L1280.12,505.578L1280.12,484.138L1377.67,484.138L1377.67,428.662L1212.32,428.662L1212.32,561.858L1309.87,561.858L1309.87,583.298Z"/>
                <path d="M1501.76,583.298L1501.76,561.858L1404.21,561.858L1404.21,428.662L1569.56,428.662L1569.56,484.138L1472.01,484.138L1472.01,505.578L1569.56,505.578L1569.56,638.774L1404.21,638.774L1404.21,583.298L1501.76,583.298Z" style="fill:white;fill-rule:nonzero;"/>
                <path d="M1585.56,654.772L1388.21,654.772L1388.21,412.665L1585.56,412.665L1585.56,654.772ZM1501.76,583.298L1404.21,583.298L1404.21,638.774L1569.56,638.774L1569.56,505.578L1472.01,505.578L1472.01,484.138L1569.56,484.138L1569.56,428.662L1404.21,428.662L1404.21,561.858L1501.76,561.858L1501.76,583.298Z"/>
                <rect x="1586.18" y="555.024" width="83.75" height="33.5" style="fill:white;fill-rule:nonzero;"/>
                <path d="M1570.18,604.522L1570.18,539.027L1685.92,539.027L1685.92,604.522L1570.18,604.522ZM1669.93,588.524L1669.93,555.024L1586.18,555.024L1586.18,588.524L1669.93,588.524Z"/>
                <path d="M1703.29,613.046L1703.29,454.39L1729.02,454.39L1729.02,428.662L1873.74,428.662L1873.74,484.138L1771.1,484.138L1771.1,583.298L1873.74,583.298L1873.74,638.774L1729.02,638.774L1729.02,613.046L1703.29,613.046Z" style="fill:white;fill-rule:nonzero;"/>
                <path d="M1687.3,438.393L1713.02,438.393L1713.02,412.665L1889.74,412.665L1889.74,500.136L1787.1,500.136L1787.1,567.301L1889.74,567.301L1889.74,654.772L1713.02,654.772L1713.02,629.044L1687.3,629.044L1687.3,438.393ZM1703.29,613.046L1729.02,613.046L1729.02,638.774L1873.74,638.774L1873.74,583.298L1771.1,583.298L1771.1,484.138L1873.74,484.138L1873.74,428.662L1729.02,428.662L1729.02,454.39L1703.29,454.39L1703.29,613.046Z"/>
                <path d="M2080.64,428.662L2080.64,638.774L1898.67,638.774L1898.67,428.662L2080.64,428.662ZM1966.47,582.494L2012.83,582.494L2012.83,484.942L1966.47,484.942L1966.47,582.494Z" style="fill:white;fill-rule:nonzero;"/>
                <path d="M2096.64,654.772L1882.67,654.772L1882.67,412.665L2096.64,412.665L2096.64,654.772ZM2080.64,428.662L1898.67,428.662L1898.67,638.774L2080.64,638.774L2080.64,428.662ZM1966.47,582.494L1966.47,484.942L2012.83,484.942L2012.83,582.494L1966.47,582.494ZM1982.47,566.497C1982.47,566.497 1996.84,566.497 1996.84,566.497L1996.84,500.94C1996.84,500.94 1982.47,500.94 1982.47,500.94L1982.47,566.497Z"/>
                <path d="M2175.78,428.662L2175.78,583.298L2265.83,583.298L2265.83,638.774L2108.78,638.774L2108.78,428.662L2175.78,428.662Z" style="fill:white;fill-rule:nonzero;"/>
                <path d="M2191.78,428.662C2191.78,428.662 2191.78,567.301 2191.78,567.301L2281.82,567.301L2281.82,654.772L2092.78,654.772L2092.78,412.665L2191.78,412.665L2191.78,428.662ZM2175.78,428.662L2108.78,428.662L2108.78,638.774L2265.83,638.774L2265.83,583.298L2175.78,583.298L2175.78,428.662Z"/>
                <path d="M2356.14,428.662L2356.14,583.298L2446.19,583.298L2446.19,638.774L2289.14,638.774L2289.14,428.662L2356.14,428.662Z" style="fill:white;fill-rule:nonzero;"/>
                <path d="M2372.14,428.662C2372.14,428.662 2372.14,567.301 2372.14,567.301L2462.19,567.301L2462.19,654.772L2273.14,654.772L2273.14,412.665L2372.14,412.665L2372.14,428.662ZM2356.14,428.662L2289.14,428.662L2289.14,638.774L2446.19,638.774L2446.19,583.298L2356.14,583.298L2356.14,428.662Z"/>
                <path d="M2628.43,428.662L2628.43,484.138L2538.92,484.138L2538.92,505.578L2628.43,505.578L2628.43,561.858L2538.92,561.858L2538.92,583.298L2628.43,583.298L2628.43,638.774L2469.51,638.774L2469.51,428.662L2628.43,428.662Z" style="fill:white;fill-rule:nonzero;"/>
                <path d="M2644.43,654.772L2453.51,654.772L2453.51,412.665L2644.43,412.665L2644.43,654.772ZM2628.43,428.662L2469.51,428.662L2469.51,638.774L2628.43,638.774L2628.43,583.298L2538.92,583.298L2538.92,561.858L2628.43,561.858L2628.43,505.578L2538.92,505.578L2538.92,484.138L2628.43,484.138L2628.43,428.662Z"/>
                <path d="M2654.96,614.654L2654.96,455.998L2680.69,455.998L2680.69,430.27L2833.72,430.27L2833.72,485.746L2724.37,485.746L2724.37,584.102L2778.24,584.102L2778.24,546.046L2833.72,546.046L2833.72,640.382L2680.69,640.382L2680.69,614.654L2654.96,614.654Z" style="fill:white;fill-rule:nonzero;"/>
                <path d="M2638.96,440.001L2664.69,440.001L2664.69,414.273L2849.72,414.273L2849.72,501.744L2740.37,501.744C2740.37,501.744 2740.37,568.105 2740.37,568.105C2740.37,568.105 2762.24,568.105 2762.24,568.105L2762.24,530.049L2849.72,530.049L2849.72,656.38L2664.69,656.38L2664.69,630.652L2638.96,630.652L2638.96,440.001ZM2654.96,614.654L2680.69,614.654L2680.69,640.382L2833.72,640.382L2833.72,546.046L2778.24,546.046L2778.24,584.102L2724.37,584.102L2724.37,485.746L2833.72,485.746L2833.72,430.27L2680.69,430.27L2680.69,455.998L2654.96,455.998L2654.96,614.654Z"/>
                <rect x="2858.64" y="428.662" width="66.196" height="210.112" style="fill:white;fill-rule:nonzero;"/>
                <path d="M2940.84,654.772L2842.64,654.772L2842.64,412.665L2940.84,412.665L2940.84,654.772ZM2924.84,428.662L2858.64,428.662L2858.64,638.774L2924.84,638.774L2924.84,428.662Z"/>
                <path d="M3113.51,428.662L3113.51,638.774L3044.9,638.774L3044.9,582.494L3021.59,582.494L3021.59,638.774L2952.98,638.774L2952.98,428.662L3113.51,428.662ZM3022.39,531.306L3044.1,531.306L3044.1,478.242L3022.39,478.242L3022.39,531.306Z" style="fill:white;fill-rule:nonzero;"/>
                <path d="M2936.98,654.772L2936.98,412.665L3129.51,412.665L3129.51,654.772L2936.98,654.772ZM3113.51,428.662L2952.98,428.662L2952.98,638.774L3021.59,638.774L3021.59,582.494L3044.9,582.494L3044.9,638.774L3113.51,638.774L3113.51,428.662ZM3022.39,531.306L3022.39,478.242L3044.1,478.242L3044.1,531.306L3022.39,531.306Z"/>
                <path d="M3140.04,484.138L3140.04,428.662L3300.57,428.662L3300.57,484.138L3255.01,484.138L3255.01,638.774L3185.6,638.774L3185.6,484.138L3140.04,484.138Z" style="fill:white;fill-rule:nonzero;"/>
                <path d="M3124.04,412.665L3316.57,412.665L3316.57,500.136L3271.01,500.136L3271.01,654.772L3169.6,654.772L3169.6,500.136L3124.04,500.136L3124.04,412.665ZM3140.04,484.138L3185.6,484.138L3185.6,638.774L3255.01,638.774L3255.01,484.138L3300.57,484.138L3300.57,428.662L3140.04,428.662L3140.04,484.138Z"/>
                <path d="M3484.15,428.662L3484.15,484.138L3394.64,484.138L3394.64,505.578L3484.15,505.578L3484.15,561.858L3394.64,561.858L3394.64,583.298L3484.15,583.298L3484.15,638.774L3325.23,638.774L3325.23,428.662L3484.15,428.662Z" style="fill:white;fill-rule:nonzero;"/>
                <path d="M3500.15,654.772L3309.23,654.772L3309.23,412.665L3500.15,412.665L3500.15,654.772ZM3484.15,428.662L3325.23,428.662L3325.23,638.774L3484.15,638.774L3484.15,583.298L3394.64,583.298L3394.64,561.858L3484.15,561.858L3484.15,505.578L3394.64,505.578L3394.64,484.138L3484.15,484.138L3484.15,428.662Z"/>
                <path d="M658.362,743.437L658.362,769.165L678.194,769.165L678.194,798.109L714.642,798.109L714.642,769.165L734.474,769.165L734.474,743.437L801.474,743.437L801.474,953.549L734.474,953.549L734.474,864.305L721.342,864.305L721.342,888.961L671.494,888.961L671.494,864.305L658.362,864.305L658.362,953.549L591.362,953.549L591.362,743.437L658.362,743.437Z" style="fill:white;fill-rule:nonzero;"/>
                <path d="M718.476,904.958L674.359,904.958L674.359,969.546L575.364,969.546L575.364,727.439L674.359,727.439L674.359,743.437C674.359,743.437 674.359,753.167 674.359,753.167L694.191,753.167L694.191,782.111L698.644,782.111L698.644,753.167L718.476,753.167L718.476,727.439L817.471,727.439L817.471,969.546L718.476,969.546L718.476,904.958ZM658.362,743.437L591.362,743.437L591.362,953.549L658.362,953.549L658.362,864.305L671.494,864.305L671.494,888.961L721.342,888.961L721.342,864.305L734.474,864.305L734.474,953.549L801.474,953.549L801.474,743.437L734.474,743.437L734.474,769.165L714.642,769.165L714.642,798.109L678.194,798.109L678.194,769.165L658.362,769.165L658.362,743.437Z"/>
                <rect x="829.614" y="743.437" width="66.196" height="210.112" style="fill:white;fill-rule:nonzero;"/>
                <path d="M911.807,969.546L813.616,969.546L813.616,727.439L911.807,727.439L911.807,969.546ZM895.81,743.437L829.614,743.437L829.614,953.549L895.81,953.549L895.81,743.437Z"/>
                <path d="M990.95,743.437L990.95,777.473L1017.48,777.473L1017.48,812.849L1033.83,812.849L1033.83,743.437L1100.83,743.437L1100.83,953.549L1033.83,953.549L1033.83,919.513L1007.57,919.513L1007.57,884.137L990.95,884.137L990.95,953.549L923.95,953.549L923.95,743.437L990.95,743.437Z" style="fill:white;fill-rule:nonzero;"/>
                <path d="M1017.83,761.475L1017.83,727.439L1116.83,727.439L1116.83,969.546L1017.83,969.546L1017.83,935.51L1006.95,935.51L1006.95,969.546L907.952,969.546L907.952,727.439L1006.95,727.439L1006.95,743.437L1006.95,761.475L1017.83,761.475ZM990.95,743.437L923.95,743.437L923.95,953.549L990.95,953.549L990.95,884.137L1007.57,884.137L1007.57,919.513L1033.83,919.513L1033.83,953.549L1100.83,953.549L1100.83,743.437L1033.83,743.437L1033.83,812.849L1017.48,812.849L1017.48,777.473L990.95,777.473L990.95,743.437Z"/>
                <path d="M1288.16,743.437L1288.16,798.913L1198.65,798.913L1198.65,820.353L1288.16,820.353L1288.16,876.633L1198.65,876.633L1198.65,898.073L1288.16,898.073L1288.16,953.549L1129.24,953.549L1129.24,743.437L1288.16,743.437Z" style="fill:white;fill-rule:nonzero;"/>
                <path d="M1304.16,969.546L1113.24,969.546L1113.24,727.439L1304.16,727.439L1304.16,969.546ZM1288.16,743.437L1129.24,743.437L1129.24,953.549L1288.16,953.549L1288.16,898.073L1198.65,898.073L1198.65,876.633L1288.16,876.633L1288.16,820.353L1198.65,820.353L1198.65,798.913L1288.16,798.913L1288.16,743.437Z"/>
                <path d="M1314.69,927.821L1314.69,769.165L1340.42,769.165L1340.42,743.437L1485.14,743.437L1485.14,798.913L1382.5,798.913L1382.5,898.073L1485.14,898.073L1485.14,953.549L1340.42,953.549L1340.42,927.821L1314.69,927.821Z" style="fill:white;fill-rule:nonzero;"/>
                <path d="M1298.7,753.167L1324.42,753.167L1324.42,727.439L1501.14,727.439L1501.14,814.91L1398.5,814.91L1398.5,882.075L1501.14,882.075L1501.14,969.546L1324.42,969.546L1324.42,943.818L1298.7,943.818L1298.7,753.167ZM1314.69,927.821L1340.42,927.821L1340.42,953.549L1485.14,953.549L1485.14,898.073L1382.5,898.073L1382.5,798.913L1485.14,798.913L1485.14,743.437L1340.42,743.437L1340.42,769.165L1314.69,769.165L1314.69,927.821Z"/>
                <path d="M1670.6,743.437L1670.6,863.501L1652.37,863.501L1652.37,873.417L1670.6,873.417L1670.6,953.549L1601.99,953.549L1601.99,877.437L1578.67,877.437L1578.67,953.549L1510.07,953.549L1510.07,743.437L1670.6,743.437ZM1579.48,819.549L1601.19,819.549L1601.19,799.717L1579.48,799.717L1579.48,819.549Z" style="fill:white;fill-rule:nonzero;"/>
                <path d="M1686.6,969.546L1494.07,969.546L1494.07,727.439L1686.6,727.439L1686.6,969.546ZM1670.6,743.437L1510.07,743.437L1510.07,953.549L1578.67,953.549L1578.67,877.437L1601.99,877.437L1601.99,953.549L1670.6,953.549L1670.6,873.417L1652.37,873.417L1652.37,863.501L1670.6,863.501L1670.6,743.437ZM1579.48,819.549L1579.48,799.717L1601.19,799.717L1601.19,819.549L1579.48,819.549Z"/>
                <path d="M1859.27,743.437L1859.27,953.549L1790.66,953.549L1790.66,897.269L1767.35,897.269L1767.35,953.549L1698.74,953.549L1698.74,743.437L1859.27,743.437ZM1768.15,846.081L1789.86,846.081L1789.86,793.017L1768.15,793.017L1768.15,846.081Z" style="fill:white;fill-rule:nonzero;"/>
                <path d="M1682.74,969.546L1682.74,727.439L1875.27,727.439L1875.27,969.546L1682.74,969.546ZM1859.27,743.437L1698.74,743.437L1698.74,953.549L1767.35,953.549L1767.35,897.269L1790.66,897.269L1790.66,953.549L1859.27,953.549L1859.27,743.437ZM1768.15,846.081L1768.15,793.017L1789.86,793.017L1789.86,846.081L1768.15,846.081Z"/>
                <path d="M2046.33,743.437L2046.33,798.913L1956.82,798.913L1956.82,820.353L2046.33,820.353L2046.33,876.633L1956.02,876.633L1956.02,953.549L1887.41,953.549L1887.41,743.437L2046.33,743.437Z" style="fill:white;fill-rule:nonzero;"/>
                <path d="M2062.33,892.63L1972.02,892.63L1972.02,969.546L1871.41,969.546L1871.41,727.439L2062.33,727.439L2062.33,892.63ZM2046.33,743.437L1887.41,743.437L1887.41,953.549L1956.02,953.549L1956.02,876.633L2046.33,876.633L2046.33,820.353L1956.82,820.353L1956.82,798.913L2046.33,798.913L2046.33,743.437Z"/>
                <path d="M2069.38,798.913L2069.38,743.437L2229.91,743.437L2229.91,798.913L2184.35,798.913L2184.35,953.549L2114.94,953.549L2114.94,798.913L2069.38,798.913Z" style="fill:white;fill-rule:nonzero;"/>
                <path d="M2053.38,727.439L2245.91,727.439L2245.91,814.91L2200.35,814.91L2200.35,969.546L2098.94,969.546L2098.94,814.91L2053.38,814.91L2053.38,727.439ZM2069.38,798.913L2114.94,798.913L2114.94,953.549L2184.35,953.549L2184.35,798.913L2229.91,798.913L2229.91,743.437L2069.38,743.437L2069.38,798.913Z"/>
                <path d="M2462.27,743.437L2462.27,898.073L2552.32,898.073L2552.32,953.549L2395.27,953.549L2395.27,743.437L2462.27,743.437Z" style="fill:white;fill-rule:nonzero;"/>
                <path d="M2478.27,743.437L2478.27,882.075L2568.32,882.075L2568.32,969.546L2379.27,969.546L2379.27,727.439L2478.27,727.439L2478.27,743.437ZM2462.27,743.437L2395.27,743.437L2395.27,953.549L2552.32,953.549L2552.32,898.073L2462.27,898.073L2462.27,743.437Z"/>
                <path d="M2734.56,743.437L2734.56,798.913L2645.05,798.913L2645.05,820.353L2734.56,820.353L2734.56,876.633L2645.05,876.633L2645.05,898.073L2734.56,898.073L2734.56,953.549L2575.63,953.549L2575.63,743.437L2734.56,743.437Z" style="fill:white;fill-rule:nonzero;"/>
                <path d="M2750.55,969.546L2559.64,969.546L2559.64,727.439L2750.55,727.439L2750.55,969.546ZM2734.56,743.437L2575.63,743.437L2575.63,953.549L2734.56,953.549L2734.56,898.073L2645.05,898.073L2645.05,876.633L2734.56,876.633L2734.56,820.353L2645.05,820.353L2645.05,798.913L2734.56,798.913L2734.56,743.437Z"/>
                <path d="M2921.62,743.437L2921.62,953.549L2853.01,953.549L2853.01,897.269L2829.7,897.269L2829.7,953.549L2761.09,953.549L2761.09,743.437L2921.62,743.437ZM2830.5,846.081L2852.21,846.081L2852.21,793.017L2830.5,793.017L2830.5,846.081Z" style="fill:white;fill-rule:nonzero;"/>
                <path d="M2745.09,969.546L2745.09,727.439L2937.62,727.439L2937.62,969.546L2745.09,969.546ZM2921.62,743.437L2761.09,743.437L2761.09,953.549L2829.7,953.549L2829.7,897.269L2853.01,897.269L2853.01,953.549L2921.62,953.549L2921.62,743.437ZM2830.5,846.081L2830.5,793.017L2852.21,793.017L2852.21,846.081L2830.5,846.081Z"/>
                <path d="M2949.76,929.429L2949.76,770.773L2975.49,770.773L2975.49,745.045L3128.52,745.045L3128.52,800.521L3019.17,800.521L3019.17,898.877L3073.04,898.877L3073.04,860.821L3128.52,860.821L3128.52,955.157L2975.49,955.157L2975.49,929.429L2949.76,929.429Z" style="fill:white;fill-rule:nonzero;"/>
                <path d="M2933.76,754.775L2959.49,754.775L2959.49,729.047L3144.51,729.047L3144.51,816.518L3035.17,816.518C3035.17,816.518 3035.17,882.879 3035.17,882.879C3035.17,882.879 3057.04,882.879 3057.04,882.879L3057.04,844.823L3144.51,844.823L3144.51,971.154L2959.49,971.154L2959.49,945.426L2933.76,945.426L2933.76,754.775ZM2949.76,929.429L2975.49,929.429L2975.49,955.157L3128.52,955.157L3128.52,860.821L3073.04,860.821L3073.04,898.877L3019.17,898.877L3019.17,800.521L3128.52,800.521L3128.52,745.045L2975.49,745.045L2975.49,770.773L2949.76,770.773L2949.76,929.429Z"/>
                <path d="M3220.44,743.437L3220.44,897.269L3256.89,897.269L3256.89,743.437L3323.89,743.437L3323.89,953.549L3153.44,953.549L3153.44,743.437L3220.44,743.437Z" style="fill:white;fill-rule:nonzero;"/>
                <path d="M3236.44,881.271L3240.89,881.271L3240.89,727.439L3339.89,727.439L3339.89,969.546L3137.44,969.546L3137.44,727.439L3236.44,727.439L3236.44,881.271ZM3220.44,743.437L3153.44,743.437L3153.44,953.549L3323.89,953.549L3323.89,743.437L3256.89,743.437L3256.89,897.269L3220.44,897.269L3220.44,743.437Z"/>
                <path d="M3510.95,743.437L3510.95,798.913L3421.44,798.913L3421.44,820.353L3510.95,820.353L3510.95,876.633L3421.44,876.633L3421.44,898.073L3510.95,898.073L3510.95,953.549L3352.03,953.549L3352.03,743.437L3510.95,743.437Z" style="fill:white;fill-rule:nonzero;"/>
                <path d="M3526.95,969.546L3336.03,969.546L3336.03,727.439L3526.95,727.439L3526.95,969.546ZM3510.95,743.437L3352.03,743.437L3352.03,953.549L3510.95,953.549L3510.95,898.073L3421.44,898.073L3421.44,876.633L3510.95,876.633L3510.95,820.353L3421.44,820.353L3421.44,798.913L3510.95,798.913L3510.95,743.437Z"/>
            </g>
            <g id="_2CML_Logo.svg" serif:id="2CML_Logo.svg" transform="matrix(0.130863,0,0,0.130863,1077.96,278.293)">
                <g transform="matrix(1,0,0,1,-2000,-2000)">
                    <g transform="matrix(1.26917,0,0,1.26917,238.859,166.413)">
                        <g transform="matrix(1.28601,0,0,1.28601,-625.127,-397.968)">
                            <g>
                                <g>
                                    <g transform="matrix(1.05427,0,0,1.06181,-81.4097,-253.528)">
                                        <path d="M1914.53,871.954L1914.53,720.888C1965.24,734.379 2015.94,747.869 2066.65,761.36L2066.65,912.421C2015.94,898.932 1965.24,885.443 1914.53,871.954ZM849.665,1344.16C798.957,1330.68 748.249,1317.2 697.542,1303.72L697.542,1152.62C748.249,1166.1 798.957,1179.59 849.665,1193.07L849.665,1344.16ZM849.665,1344.16C900.373,1357.65 951.081,1371.13 1001.79,1384.61L1001.79,1082.42C1052.5,1095.91 1103.2,1109.39 1153.91,1122.88L1153.91,1273.97C1204.62,1287.45 1255.33,1300.93 1306.04,1314.42L1306.04,1465.5C1356.74,1478.98 1407.45,1492.46 1458.16,1505.95L1458.16,1203.79C1407.45,1190.3 1356.74,1176.82 1306.04,1163.33L1306.04,861.167C1356.74,874.655 1407.45,888.142 1458.16,901.63L1458.16,750.551C1508.87,764.04 1559.58,777.529 1610.28,791.019L1610.28,639.944C1660.99,653.435 1711.7,666.925 1762.41,680.416L1762.41,831.486C1813.11,844.975 1863.82,858.464 1914.53,871.954L1914.53,1023.02C1965.24,1036.51 2015.94,1050 2066.65,1063.48L2066.65,1365.61C2015.94,1352.12 1965.24,1338.64 1914.53,1325.15L1914.53,1627.28C1965.24,1640.76 2015.94,1654.25 2066.65,1667.73L2066.65,1516.67C2117.36,1530.15 2168.07,1543.63 2218.78,1557.12L2218.78,1406.06C2269.49,1419.54 2320.19,1433.03 2370.9,1446.51L2370.9,1748.62C2421.61,1762.1 2472.32,1775.58 2523.02,1789.06L2523.02,1938.49C2573.73,1951.97 2624.44,1965.45 2675.15,1978.93L2675.15,2131.6C2624.44,2118.12 2573.73,2104.64 2523.02,2091.16L2523.02,2242.21C2472.32,2228.73 2421.61,2215.25 2370.9,2201.78L2370.9,2352.83C2320.19,2339.35 2269.49,2325.88 2218.78,2312.4L2218.78,2463.46C2117.36,2436.51 2015.94,2409.56 1914.53,2382.61L1914.53,2231.55C1863.82,2218.07 1813.11,2204.59 1762.41,2191.12L1762.41,2644.33C1711.7,2630.86 1660.99,2617.39 1610.28,2603.91L1610.28,2150.69C1559.58,2137.21 1508.87,2123.74 1458.16,2110.26L1458.16,2259.72C1356.74,2232.77 1255.33,2205.82 1153.91,2178.88L1153.91,2029.41C1103.2,2015.93 1052.5,2002.46 1001.79,1988.98L1001.79,1837.89C951.081,1824.41 900.373,1810.93 849.665,1797.45L849.665,1646.36C798.957,1632.88 748.249,1619.4 697.542,1605.92L697.542,1454.82C748.249,1468.3 798.957,1481.78 849.665,1495.26L849.665,1344.16ZM2523.02,1789.06L2523.02,1638.02C2573.73,1651.5 2624.44,1664.98 2675.15,1678.47L2675.15,1829.51C2624.44,1816.03 2573.73,1802.55 2523.02,1789.06Z" style="fill:rgb(96,0,0);"/>
                                    </g>
                                    <g transform="matrix(1.44215,0,0,1.45246,11.3397,-568.748)">
                                        <g transform="matrix(0.805051,0,0,0.86855,-45.9503,155.963)">
                                            <g transform="matrix(0.963204,0,0,0.963204,1113.89,419.933)">
                                                <path d="M481.397,1277.25C433.591,1265.47 385.786,1253.7 337.981,1241.92L337.981,1384.34C385.786,1396.12 433.591,1407.9 481.397,1419.67L481.397,1277.25Z" style="fill:rgb(96,0,0);"/>
                                            </g>
                                            <g transform="matrix(0.963204,0,0,0.963204,1298.08,419.933)">
                                                <path d="M433.591,1312.59C385.786,1300.81 337.981,1289.03 290.176,1277.25L290.176,1419.67C337.981,1431.45 385.786,1443.23 433.591,1455.01L433.591,1312.59Z" style="fill:rgb(96,0,0);"/>
                                            </g>
                                            <g transform="matrix(0.963204,0,0,0.963204,1666.45,419.933)">
                                                <path d="M337.981,1383.26C290.176,1371.48 242.371,1359.7 194.566,1347.92L194.566,1490.34C242.371,1502.11 290.176,1513.89 337.981,1525.67L337.981,1383.26Z" style="fill:rgb(96,0,0);"/>
                                            </g>
                                            <g transform="matrix(0.963204,0,0,0.963204,1850.63,419.933)">
                                                <path d="M290.176,1418.59C242.371,1406.81 194.566,1395.04 146.76,1383.26L146.76,1525.67C194.566,1537.44 242.371,1549.22 290.176,1561L290.176,1418.59Z" style="fill:rgb(96,0,0);"/>
                                            </g>
                                            <g transform="matrix(0.963204,0,0,0.963204,745.522,419.933)">
                                                <path d="M577.007,1206.58C529.202,1194.8 481.397,1183.03 433.591,1171.25L433.591,1313.68C481.397,1325.46 529.202,1337.24 577.007,1349.01L577.007,1206.58Z" style="fill:rgb(96,0,0);"/>
                                            </g>
                                            <g transform="matrix(0.963204,0,0,0.963204,561.338,419.933)">
                                                <path d="M624.812,1171.25C577.007,1159.47 529.202,1147.69 481.397,1135.91L481.397,1278.35C529.202,1290.13 577.007,1301.9 624.812,1313.68L624.812,1171.25Z" style="fill:rgb(96,0,0);"/>
                                            </g>
                                            <g transform="matrix(0.963204,0,0,0.963204,377.153,419.933)">
                                                <path d="M672.617,1135.91C624.812,1124.13 577.007,1112.36 529.202,1100.58L529.202,1243.02C577.007,1254.8 624.812,1266.57 672.617,1278.35L672.617,1135.91Z" style="fill:rgb(96,0,0);"/>
                                            </g>
                                            <g transform="matrix(0.963204,0,0,0.963204,192.969,419.933)">
                                                <path d="M720.423,1100.58C672.617,1088.8 624.812,1077.02 577.007,1065.24L577.007,1207.69C624.812,1219.47 672.617,1231.24 720.423,1243.02L720.423,1100.58Z" style="fill:rgb(96,0,0);"/>
                                            </g>
                                            <g transform="matrix(0.963204,0,0,0.963204,1482.26,419.933)">
                                                <path d="M385.786,1347.92C337.981,1336.14 290.176,1324.37 242.371,1312.59L242.371,1455.01C290.176,1466.78 337.981,1478.56 385.786,1490.34L385.786,1347.92Z" style="fill:rgb(96,0,0);"/>
                                            </g>
                                            <g transform="matrix(0.963204,0,0,0.963204,2034.81,419.933)">
                                                <path d="M242.371,1453.93C194.566,1442.15 146.76,1430.37 98.955,1418.59L98.955,1561C146.76,1572.78 194.566,1584.55 242.371,1596.33L242.371,1453.93Z" style="fill:rgb(96,0,0);"/>
                                            </g>
                                            <g transform="matrix(0.963204,0,0,0.963204,929.707,419.933)">
                                                <path d="M529.202,1241.92C481.397,1230.14 433.591,1218.36 385.786,1206.58L385.786,1349.01C433.591,1360.79 481.397,1372.57 529.202,1384.34L529.202,1241.92Z" style="fill:rgb(96,0,0);"/>
                                            </g>
                                        </g>
                                        <g transform="matrix(0.805051,0,0,0.85646,-45.9503,31.6136)">
                                            <g transform="matrix(0.963204,0,0,0.963204,1113.89,417.957)">
                                                <path d="M481.397,1321.85C433.591,1309.9 385.786,1297.96 337.981,1286.01L337.981,1428.44C385.786,1440.38 433.591,1452.33 481.397,1464.27L481.397,1321.85Z" style="fill:rgb(96,0,0);"/>
                                            </g>
                                            <g transform="matrix(0.963204,0,0,0.963204,1298.08,417.957)">
                                                <path d="M433.591,1357.69C385.786,1345.74 337.981,1333.8 290.176,1321.85L290.176,1464.27C337.981,1476.22 385.786,1488.16 433.591,1500.11L433.591,1357.69Z" style="fill:rgb(96,0,0);"/>
                                            </g>
                                            <g transform="matrix(0.963204,0,0,0.963204,1666.45,417.957)">
                                                <path d="M337.981,1429.37C290.176,1417.42 242.371,1405.47 194.566,1393.53L194.566,1535.94C242.371,1547.88 290.176,1559.83 337.981,1571.78L337.981,1429.37Z" style="fill:rgb(96,0,0);"/>
                                            </g>
                                            <g transform="matrix(0.963204,0,0,0.963204,1850.63,417.957)">
                                                <path d="M290.176,1465.2C242.371,1453.26 194.566,1441.31 146.76,1429.37L146.76,1571.78C194.566,1583.72 242.371,1595.66 290.176,1607.61L290.176,1465.2Z" style="fill:rgb(96,0,0);"/>
                                            </g>
                                            <g transform="matrix(0.963204,0,0,0.963204,745.522,417.957)">
                                                <path d="M577.007,1250.18C529.202,1238.23 481.397,1226.28 433.591,1214.34L433.591,1356.77C481.397,1368.72 529.202,1380.66 577.007,1392.61L577.007,1250.18Z" style="fill:rgb(96,0,0);"/>
                                            </g>
                                            <g transform="matrix(0.963204,0,0,0.963204,561.338,417.957)">
                                                <path d="M624.812,1214.34C577.007,1202.39 529.202,1190.45 481.397,1178.5L481.397,1320.94C529.202,1332.88 577.007,1344.83 624.812,1356.77L624.812,1214.34Z" style="fill:rgb(96,0,0);"/>
                                            </g>
                                            <g transform="matrix(0.963204,0,0,0.963204,377.153,417.957)">
                                                <path d="M672.617,1178.5C624.812,1166.55 577.007,1154.61 529.202,1142.66L529.202,1285.11C577.007,1297.05 624.812,1309 672.617,1320.94L672.617,1178.5Z" style="fill:rgb(96,0,0);"/>
                                            </g>
                                            <g transform="matrix(0.963204,0,0,0.963204,192.969,417.957)">
                                                <path d="M720.423,1142.66C672.617,1130.72 624.812,1118.77 577.007,1106.83L577.007,1249.27C624.812,1261.22 672.617,1273.16 720.423,1285.11L720.423,1142.66Z" style="fill:rgb(96,0,0);"/>
                                            </g>
                                            <g transform="matrix(0.963204,0,0,0.963204,1482.26,418.616)">
                                                <path d="M385.786,1393.35C337.981,1381.41 290.176,1369.46 242.371,1357.51L242.371,1499.93C290.176,1511.88 337.981,1523.82 385.786,1535.77L385.786,1393.35Z" style="fill:rgb(96,0,0);"/>
                                            </g>
                                            <g transform="matrix(0.963204,0,0,0.963204,2034.81,417.957)">
                                                <path d="M242.371,1501.04C194.566,1489.09 146.76,1477.15 98.955,1465.2L98.955,1607.61C146.76,1619.55 194.566,1631.5 242.371,1643.44L242.371,1501.04Z" style="fill:rgb(96,0,0);"/>
                                            </g>
                                            <g transform="matrix(0.963204,0,0,0.914108,2219,492.744)">
                                                <path d="M194.566,1545.26C146.76,1532.67 98.955,1520.08 51.15,1507.5L51.15,1649.9C98.955,1662.48 146.76,1675.07 194.566,1687.65L194.566,1545.26Z" style="fill:rgb(96,0,0);"/>
                                            </g>
                                            <g transform="matrix(0.963204,0,0,0.963204,929.707,417.957)">
                                                <path d="M529.202,1286.01C481.397,1274.07 433.591,1262.12 385.786,1250.18L385.786,1392.61C433.591,1404.55 481.397,1416.5 529.202,1428.44L529.202,1286.01Z" style="fill:rgb(96,0,0);"/>
                                            </g>
                                            <g transform="matrix(0.963204,0,0,0.914108,8.78398,492.744)">
                                                <path d="M768.228,1092.11C720.423,1079.52 672.617,1066.93 624.812,1054.35L624.812,1196.8C672.617,1209.38 720.423,1221.97 768.228,1234.56L768.228,1092.11Z" style="fill:rgb(96,0,0);"/>
                                            </g>
                                        </g>
                                        <g transform="matrix(0.805051,0,0,0.805051,-45.9503,-21.321)">
                                            <g transform="matrix(0.963204,0,0,0.963204,1113.89,417.957)">
                                                <path d="M481.397,1367.41C433.591,1354.7 385.786,1341.99 337.981,1329.28L337.981,1471.71C385.786,1484.42 433.591,1497.13 481.397,1509.84L481.397,1367.41Z" style="fill:rgb(96,0,0);"/>
                                            </g>
                                            <g transform="matrix(0.963204,0,0,0.963204,1298.08,417.957)">
                                                <path d="M433.591,1405.54C385.786,1392.83 337.981,1380.12 290.176,1367.41L290.176,1509.84C337.981,1522.55 385.786,1535.25 433.591,1547.96L433.591,1405.54Z" style="fill:rgb(96,0,0);"/>
                                            </g>
                                            <g transform="matrix(0.963204,0,0,0.963204,1666.45,417.957)">
                                                <path d="M337.981,1481.81C290.176,1469.1 242.371,1456.38 194.566,1443.67L194.566,1586.09C242.371,1598.8 290.176,1611.51 337.981,1624.22L337.981,1481.81Z" style="fill:rgb(96,0,0);"/>
                                            </g>
                                            <g transform="matrix(0.963204,0,0,0.963204,1850.63,417.957)">
                                                <path d="M290.176,1519.93C242.371,1507.23 194.566,1494.52 146.76,1481.81L146.76,1624.22C194.566,1636.92 242.371,1649.63 290.176,1662.34L290.176,1519.93Z" style="fill:rgb(96,0,0);"/>
                                            </g>
                                            <g transform="matrix(0.963204,0,0,0.963204,745.522,417.957)">
                                                <path d="M577.007,1291.15C529.202,1278.44 481.397,1265.73 433.591,1253.02L433.591,1395.46C481.397,1408.17 529.202,1420.88 577.007,1433.59L577.007,1291.15Z" style="fill:rgb(96,0,0);"/>
                                            </g>
                                            <g transform="matrix(0.963204,0,0,0.963204,561.338,417.957)">
                                                <path d="M624.812,1253.02C577.007,1240.31 529.202,1227.6 481.397,1214.89L481.397,1357.33C529.202,1370.04 577.007,1382.75 624.812,1395.46L624.812,1253.02Z" style="fill:rgb(96,0,0);"/>
                                            </g>
                                            <g transform="matrix(0.963204,0,0,0.963204,377.153,417.957)">
                                                <path d="M672.617,1214.89C624.812,1202.18 577.007,1189.47 529.202,1176.76L529.202,1319.21C577.007,1331.91 624.812,1344.62 672.617,1357.33L672.617,1214.89Z" style="fill:rgb(96,0,0);"/>
                                            </g>
                                            <g transform="matrix(0.963204,0,0,0.963204,192.969,417.957)">
                                                <path d="M720.423,1176.76C672.617,1164.05 624.812,1151.34 577.007,1138.63L577.007,1281.08C624.812,1293.79 672.617,1306.5 720.423,1319.21L720.423,1176.76Z" style="fill:rgb(96,0,0);"/>
                                            </g>
                                            <g transform="matrix(0.963204,0,0,0.963204,1482.26,417.957)">
                                                <path d="M385.786,1443.67C337.981,1430.96 290.176,1418.26 242.371,1405.54L242.371,1547.96C290.176,1560.67 337.981,1573.38 385.786,1586.09L385.786,1443.67Z" style="fill:rgb(96,0,0);"/>
                                            </g>
                                            <g transform="matrix(0.963204,0,0,0.963204,2034.81,417.957)">
                                                <path d="M242.371,1558.07C194.566,1545.36 146.76,1532.64 98.955,1519.93L98.955,1662.34C146.76,1675.05 194.566,1687.76 242.371,1700.47L242.371,1558.07Z" style="fill:rgb(96,0,0);"/>
                                            </g>
                                            <g transform="matrix(0.963204,0,0,0.963204,929.707,417.957)">
                                                <path d="M529.202,1329.28C481.397,1316.57 433.591,1303.86 385.786,1291.15L385.786,1433.59C433.591,1446.29 481.397,1459 529.202,1471.71L529.202,1329.28Z" style="fill:rgb(96,0,0);"/>
                                            </g>
                                        </g>
                                    </g>
                                </g>
                            </g>
                        </g>
                        <g>
                            <g transform="matrix(2.07791,0.685192,-2.07723,1.37229,3380.96,-515.619)">
                                <rect x="1013.45" y="1929.76" width="87.333" height="63.796" style="fill:rgb(97,0,0);"/>
                            </g>
                            <g transform="matrix(2.05991,0.737553,-2.07783,1.45491,4020.61,-979.848)">
                                <rect x="1013.45" y="1929.76" width="87.333" height="63.796" style="fill:rgb(97,0,0);"/>
                            </g>
                            <g transform="matrix(2.05991,0.737553,-2.07691,1.48145,4225.2,-1182.32)">
                                <rect x="1013.45" y="1929.76" width="87.333" height="63.796" style="fill:rgb(97,0,0);"/>
                            </g>
                            <g transform="matrix(2.05991,0.737553,-2.07702,1.498,4431.7,-1364.88)">
                                <rect x="1013.45" y="1929.76" width="87.333" height="63.796" style="fill:rgb(97,0,0);"/>
                            </g>
                            <g transform="matrix(2.05991,0.737553,-2.07569,1.51917,4635.3,-1557.09)">
                                <rect x="1013.45" y="1929.76" width="87.333" height="63.796" style="fill:rgb(97,0,0);"/>
                            </g>
                            <g transform="matrix(2.06001,0.737589,-2.07475,1.51849,4633.26,-1968.28)">
                                <rect x="1013.45" y="1929.76" width="87.333" height="63.796" style="fill:rgb(97,0,0);"/>
                            </g>
                            <g transform="matrix(2.05014,0.734058,-2.07599,1.49725,3821.7,-2557.31)">
                                <rect x="1013.45" y="1929.76" width="87.333" height="63.796" style="fill:rgb(97,0,0);"/>
                            </g>
                            <g transform="matrix(2.05014,0.734058,-2.07763,1.50949,3824.8,-3199.32)">
                                <rect x="1013.45" y="1929.76" width="87.333" height="63.796" style="fill:rgb(97,0,0);"/>
                            </g>
                            <g transform="matrix(2.05014,0.734058,-2.07663,1.35374,2997.85,-1058.88)">
                                <rect x="1013.45" y="1929.76" width="87.333" height="63.796" style="fill:rgb(97,0,0);"/>
                            </g>
                            <g transform="matrix(2.36172,0.639452,-2.07534,1.51614,4302.36,-2061.71)">
                                <rect x="1013.45" y="1929.76" width="87.333" height="63.796" style="fill:rgb(117,0,0);"/>
                            </g>
                            <g transform="matrix(2.36172,0.639452,-2.07534,1.51614,4302.39,-1652.27)">
                                <rect x="1013.45" y="1929.76" width="87.333" height="63.796" style="fill:rgb(155,12,35);"/>
                            </g>
                            <g transform="matrix(2.36172,0.639452,-2.07534,1.51614,4096.01,-1914.46)">
                                <rect x="1013.45" y="1929.76" width="87.333" height="63.796" style="fill:rgb(35,37,74);"/>
                            </g>
                            <g transform="matrix(2.36172,0.639452,-2.06445,1.50818,3868.24,-2363.41)">
                                <rect x="1013.45" y="1929.76" width="87.333" height="63.796" style="fill:rgb(117,0,0);"/>
                            </g>
                            <g transform="matrix(2.36172,0.639452,-2.06445,1.50818,3661.93,-2213.3)">
                                <rect x="1013.45" y="1929.76" width="87.333" height="63.796" style="fill:rgb(117,0,0);"/>
                            </g>
                            <g transform="matrix(2.36172,0.639452,-2.06445,1.50818,3455.55,-2066.33)">
                                <rect x="1013.45" y="1929.76" width="87.333" height="63.796" style="fill:rgb(208,191,190);"/>
                            </g>
                            <g transform="matrix(2.36821,0.641208,-2.06445,1.50818,3449.05,-2888.04)">
                                <rect x="1013.45" y="1929.76" width="87.333" height="63.796" style="fill:rgb(117,0,0);"/>
                            </g>
                            <g transform="matrix(2.35314,0.637131,-2.08507,1.52324,3505.41,-3325.29)">
                                <rect x="1013.45" y="1929.76" width="87.333" height="63.796" style="fill:rgb(117,0,0);"/>
                            </g>
                            <g transform="matrix(2.36146,0.639381,-2.06401,1.50786,3248.78,-3146.59)">
                                <rect x="1013.45" y="1929.76" width="87.333" height="63.796" style="fill:rgb(117,0,0);"/>
                            </g>
                            <g transform="matrix(16.4042,4.44155,-2.06401,1.50786,-12621.6,-7442.67)">
                                <rect x="1013.45" y="1929.76" width="87.333" height="63.796" style="fill:rgb(41,40,71);"/>
                            </g>
                            <g transform="matrix(2.36146,0.639381,-2.06401,1.50786,2630.13,-3107.5)">
                                <rect x="1013.45" y="1929.76" width="87.333" height="63.796" style="fill:rgb(117,0,0);"/>
                            </g>
                            <g transform="matrix(2.37413,0.643702,-2.07371,1.42149,2636.51,-2121.63)">
                                <rect x="1013.45" y="1929.76" width="87.333" height="63.796" style="fill:rgb(98,92,38);"/>
                            </g>
                            <g transform="matrix(2.36284,0.640642,-2.08981,1.43253,2473.79,-2398.67)">
                                <rect x="1013.45" y="1929.76" width="87.333" height="63.796" style="fill:rgb(117,0,0);"/>
                            </g>
                            <g transform="matrix(2.36284,0.640642,-2.08981,1.43253,2267.54,-2659.5)">
                                <rect x="1013.45" y="1929.76" width="87.333" height="63.796" style="fill:rgb(117,0,0);"/>
                            </g>
                            <g transform="matrix(2.36284,0.640642,-2.07577,1.42291,2033.34,-2289.14)">
                                <rect x="1013.45" y="1929.76" width="87.333" height="63.796" style="fill:rgb(20,49,107);"/>
                            </g>
                            <g transform="matrix(2.36961,0.642477,-2.06543,1.41582,1799.57,-2534.68)">
                                <rect x="1013.45" y="1929.76" width="87.333" height="63.796" style="fill:rgb(117,0,0);"/>
                            </g>
                            <g transform="matrix(2.36284,0.640642,-2.06543,1.41582,1806.43,-2125.93)">
                                <rect x="1013.45" y="1929.76" width="87.333" height="63.796" style="fill:rgb(155,12,35);"/>
                            </g>
                            <g transform="matrix(2.36284,0.640642,-2.07599,1.52664,3065.1,-3446.1)">
                                <rect x="1013.45" y="1929.76" width="87.333" height="63.796" style="fill:rgb(117,0,0);"/>
                            </g>
                            <g transform="matrix(6.64426e-17,2.30609,-2.07746,1.42246,4431.29,-4177.46)">
                                <rect x="1013.45" y="1929.76" width="87.333" height="63.796" style="fill:rgb(97,0,0);"/>
                            </g>
                            <g transform="matrix(6.63634e-17,2.34307,-2.14258,1.46705,6830.09,-3486.17)">
                                <rect x="1013.45" y="1929.76" width="87.333" height="63.796" style="fill:rgb(36,37,56);"/>
                            </g>
                            <g transform="matrix(6.76279e-17,2.36372,-2.14258,1.46705,6829.88,-3093.3)">
                                <rect x="1013.45" y="1929.76" width="87.333" height="63.796" style="fill:rgb(36,37,56);"/>
                            </g>
                            <g transform="matrix(7.20158e-17,2.39577,-2.07519,1.50906,6901.84,-3362.25)">
                                <rect x="1013.45" y="1929.76" width="87.333" height="63.796" style="fill:rgb(134,0,24);"/>
                            </g>
                        </g>
                        <g transform="matrix(1.78755,0,0,1.78755,-1443.51,-1066.51)">
                            <g>
                                <g transform="matrix(0.719422,0,0,0.714245,278.189,468.587)">
                                    <g transform="matrix(1.05427,0,0,1.06181,-81.4097,-253.528)">
                                        <path d="M2054.74,822.582L2054.74,670.949C2105.45,684.602 2156.16,698.255 2206.86,711.907L2206.86,863.596C2156.16,849.925 2105.45,836.254 2054.74,822.582ZM989.876,1291.73C939.168,1277.97 888.46,1264.2 837.752,1250.44L837.752,1099.25C888.46,1112.99 939.168,1126.74 989.876,1140.48L989.876,1291.73ZM989.876,1291.73C1040.58,1305.49 1091.29,1319.26 1142,1333.02L1142,1030.41C1192.71,1044.14 1243.41,1057.86 1294.12,1071.59L1294.12,1222.95C1344.83,1236.69 1395.54,1250.44 1446.25,1264.18L1446.25,1415.6C1496.95,1429.36 1547.66,1443.12 1598.37,1456.88L1598.37,1153.95C1547.66,1140.22 1496.95,1126.5 1446.25,1112.77L1446.25,809.942C1496.95,823.632 1547.66,837.321 1598.37,851.01L1598.37,699.542C1649.08,713.213 1699.79,726.884 1750.49,740.556L1750.49,589.032C1801.2,602.685 1851.91,616.338 1902.62,629.991L1902.62,781.569C1953.33,795.24 2004.03,808.911 2054.74,822.582L2054.74,974.216C2105.45,987.905 2156.16,1001.6 2206.86,1015.28L2206.86,1318.66C2156.16,1304.93 2105.45,1291.21 2054.74,1277.48L2054.74,1580.75C2105.45,1594.51 2156.16,1608.28 2206.86,1622.04L2206.86,1470.35C2257.57,1484.09 2308.28,1497.84 2358.99,1511.58L2358.99,1359.84C2409.7,1373.57 2460.4,1387.29 2511.11,1401.02L2511.11,1704.61C2561.82,1718.38 2612.53,1732.14 2663.23,1745.9L2663.23,1896.13C2713.94,1909.91 2764.65,1923.69 2815.36,1937.47L2815.36,2091.01C2764.65,2077.21 2713.94,2063.41 2663.23,2049.61L2663.23,2201.46C2612.53,2187.64 2561.82,2173.83 2511.11,2160.01L2511.11,2311.81C2460.4,2297.97 2409.7,2284.14 2358.99,2270.3L2358.99,2422.04C2257.57,2394.33 2156.16,2366.62 2054.74,2338.91L2054.74,2187.28C2004.03,2173.45 1953.33,2159.61 1902.62,2145.77L1902.62,2600.51C1851.91,2586.62 1801.2,2572.73 1750.49,2558.84L1750.49,2104.26C1699.79,2090.43 1649.08,2076.59 1598.37,2062.76L1598.37,2212.6C1496.95,2184.89 1395.54,2157.18 1294.12,2129.47L1294.12,1979.74C1243.41,1965.9 1192.71,1952.07 1142,1938.23L1142,1786.93C1091.29,1773.11 1040.58,1759.29 989.876,1745.47L989.876,1594.23C939.168,1580.43 888.46,1566.63 837.752,1552.83L837.752,1401.63C888.46,1415.42 939.168,1429.2 989.876,1442.98L989.876,1291.73ZM2663.23,1745.9L2663.23,1594.05C2713.94,1607.79 2764.65,1621.54 2815.36,1635.28L2815.36,1787.19C2764.65,1773.43 2713.94,1759.66 2663.23,1745.9Z" style="fill:rgb(232,0,0);"/>
                                    </g>
                                    <g transform="matrix(1.44215,0,0,1.45246,11.3397,-568.748)">
                                        <g transform="matrix(0.805051,0,0,0.86855,-45.9503,155.963)">
                                            <g transform="matrix(0.963204,0,0,0.963204,1113.89,419.933)">
                                                <path d="M613.581,1236.71C565.776,1224.65 517.971,1212.59 470.166,1200.54L470.166,1343.38C517.971,1355.46 565.776,1367.53 613.581,1379.61L613.581,1236.71Z" style="fill:rgb(0,55,151);"/>
                                            </g>
                                            <g transform="matrix(0.963204,0,0,0.963204,1298.08,419.933)">
                                                <path d="M565.776,1272.88C517.971,1260.82 470.166,1248.76 422.36,1236.71L422.36,1379.61C470.166,1391.68 517.971,1403.76 565.776,1415.83L565.776,1272.88Z" style="fill:rgb(185,14,47);"/>
                                            </g>
                                            <g transform="matrix(0.963204,0,0,0.963204,1666.45,419.933)">
                                                <path d="M470.166,1345.22C422.36,1333.16 374.555,1321.11 326.75,1309.05L326.75,1452.06C374.555,1464.13 422.36,1476.2 470.166,1488.28L470.166,1345.22Z" style="fill:rgb(23,123,0);"/>
                                            </g>
                                            <g transform="matrix(0.963204,0,0,0.963204,1850.63,419.933)">
                                                <path d="M422.36,1381.39C374.555,1369.34 326.75,1357.28 278.945,1345.22L278.945,1488.28C326.75,1500.35 374.555,1512.43 422.36,1524.5L422.36,1381.39Z" style="fill:white;"/>
                                            </g>
                                            <g transform="matrix(0.963204,0,0,0.963204,561.338,419.933)">
                                                <path d="M756.997,1128.19C709.192,1116.13 661.386,1104.08 613.581,1092.02L613.581,1234.71C661.386,1246.79 709.192,1258.86 756.997,1270.94L756.997,1128.19Z"/>
                                            </g>
                                            <g transform="matrix(0.963204,0,0,0.963204,377.153,419.933)">
                                                <path d="M804.802,1092.02C756.997,1079.96 709.192,1067.91 661.386,1055.85L661.386,1198.49C709.192,1210.57 756.997,1222.64 804.802,1234.71L804.802,1092.02Z" style="fill:rgb(253,211,3);"/>
                                            </g>
                                            <g transform="matrix(0.963204,0,0,0.963204,192.969,419.933)">
                                                <path d="M852.607,1055.85C804.802,1043.79 756.997,1031.73 709.192,1019.68L709.192,1162.27C756.997,1174.34 804.802,1186.42 852.607,1198.49L852.607,1055.85Z" style="fill:rgb(0,61,165);"/>
                                            </g>
                                            <g transform="matrix(0.963204,0,0,0.963204,1482.26,419.933)">
                                                <path d="M517.971,1309.05C470.166,1296.99 422.36,1284.93 374.555,1272.88L374.555,1415.83C422.36,1427.91 470.166,1439.98 517.971,1452.06L517.971,1309.05Z" style="fill:rgb(252,213,1);"/>
                                            </g>
                                            <g transform="matrix(0.963204,0,0,0.963204,2034.81,419.933)">
                                                <path d="M374.555,1417.56C326.75,1405.51 278.945,1393.45 231.14,1381.39L231.14,1524.5C278.945,1536.58 326.75,1548.65 374.555,1560.73L374.555,1417.56Z" style="fill:rgb(42,49,125);"/>
                                            </g>
                                            <g transform="matrix(0.963204,0,0,0.963204,929.707,419.933)">
                                                <path d="M661.386,1200.54C613.581,1188.48 565.776,1176.42 517.971,1164.36L517.971,1307.16C565.776,1319.24 613.581,1331.31 661.386,1343.38L661.386,1200.54Z" style="fill:rgb(45,150,140);"/>
                                            </g>
                                            <g transform="matrix(0.963204,0,0,0.963204,745.522,419.933)">
                                                <path d="M709.192,1164.36C661.386,1152.31 613.581,1140.25 565.776,1128.19L565.776,1270.94C613.581,1283.01 661.386,1295.09 709.192,1307.16L709.192,1164.36Z" style="fill:rgb(13,54,145);"/>
                                            </g>
                                        </g>
                                        <g transform="matrix(0.805051,0,0,0.85646,-45.9503,31.6136)">
                                            <g transform="matrix(0.963204,0,0,0.963204,1113.89,417.957)">
                                                <path d="M613.581,1280.29C565.776,1268.08 517.971,1255.87 470.166,1243.65L470.166,1386.5C517.971,1398.73 565.776,1410.96 613.581,1423.19L613.581,1280.29Z" style="fill:rgb(0,106,26);"/>
                                            </g>
                                            <g transform="matrix(0.963204,0,0,0.963204,1298.08,417.957)">
                                                <path d="M565.776,1316.92C517.971,1304.71 470.166,1292.5 422.36,1280.29L422.36,1423.19C470.166,1435.42 517.971,1447.65 565.776,1459.88L565.776,1316.92Z" style="fill:white;"/>
                                            </g>
                                            <g transform="matrix(0.963204,0,0,0.963204,1666.45,417.957)">
                                                <path d="M470.166,1390.19C422.36,1377.98 374.555,1365.77 326.75,1353.56L326.75,1496.56C374.555,1508.79 422.36,1521.02 470.166,1533.25L470.166,1390.19Z" style="fill:white;"/>
                                            </g>
                                            <g transform="matrix(0.963204,0,0,0.963204,1850.63,417.957)">
                                                <path d="M422.36,1426.82C374.555,1414.61 326.75,1402.4 278.945,1390.19L278.945,1533.25C326.75,1545.48 374.555,1557.7 422.36,1569.93L422.36,1426.82Z" style="fill:rgb(0,71,187);"/>
                                            </g>
                                            <g transform="matrix(0.963204,0,0,0.963204,745.522,417.957)">
                                                <path d="M709.192,1207.02C661.386,1194.81 613.581,1182.6 565.776,1170.39L565.776,1313.13C613.581,1325.36 661.386,1337.59 709.192,1349.82L709.192,1207.02Z" style="fill:rgb(15,104,38);"/>
                                            </g>
                                            <g transform="matrix(0.963204,0,0,0.963204,561.338,417.957)">
                                                <path d="M756.997,1170.39C709.192,1158.17 661.386,1145.96 613.581,1133.75L613.581,1276.45C661.386,1288.67 709.192,1300.9 756.997,1313.13L756.997,1170.39Z" style="fill:rgb(255,205,0);"/>
                                            </g>
                                            <g transform="matrix(0.963204,0,0,0.963204,377.153,417.957)">
                                                <path d="M804.802,1133.75C756.997,1121.54 709.192,1109.33 661.386,1097.12L661.386,1239.76C709.192,1251.99 756.997,1264.22 804.802,1276.45L804.802,1133.75Z" style="fill:rgb(221,24,16);"/>
                                            </g>
                                            <g transform="matrix(0.963204,0,0,0.963204,192.969,417.957)">
                                                <path d="M852.607,1097.12C804.802,1084.91 756.997,1072.69 709.192,1060.48L709.192,1203.07C756.997,1215.3 804.802,1227.53 852.607,1239.76L852.607,1097.12Z" style="fill:white;"/>
                                            </g>
                                            <g transform="matrix(0.963204,0,0,0.963204,1482.26,418.616)">
                                                <path d="M517.971,1353.38C470.166,1341.17 422.36,1328.96 374.555,1316.75L374.555,1459.7C422.36,1471.93 470.166,1484.16 517.971,1496.39L517.971,1353.38Z" style="fill:rgb(212,22,22);"/>
                                            </g>
                                            <g transform="matrix(0.963204,0,0,0.963204,2034.81,417.957)">
                                                <path d="M374.555,1463.46C326.75,1451.25 278.945,1439.04 231.14,1426.82L231.14,1569.93C278.945,1582.16 326.75,1594.39 374.555,1606.62L374.555,1463.46Z" style="fill:white;"/>
                                            </g>
                                            <g transform="matrix(0.963204,0,0,0.914108,2219,492.744)">
                                                <path d="M326.75,1506.54C278.945,1493.67 231.14,1480.8 183.335,1467.93L183.335,1611.1C231.14,1623.98 278.945,1636.87 326.75,1649.75L326.75,1506.54Z" style="fill:rgb(200,16,47);"/>
                                            </g>
                                            <g transform="matrix(0.963204,0,0,0.963204,929.707,417.957)">
                                                <path d="M661.386,1243.65C613.581,1231.44 565.776,1219.23 517.971,1207.02L517.971,1349.82C565.776,1362.05 613.581,1374.28 661.386,1386.5L661.386,1243.65Z" style="fill:white;"/>
                                            </g>
                                            <g transform="matrix(0.963204,0,0,0.914108,8.78398,492.744)">
                                                <path d="M900.412,1043.29C852.607,1030.42 804.802,1017.55 756.997,1004.68L756.997,1147.22C804.802,1160.11 852.607,1172.99 900.412,1185.88L900.412,1043.29Z" style="fill:rgb(200,16,47);"/>
                                            </g>
                                        </g>
                                        <g transform="matrix(0.805051,0,0,0.805051,-45.9503,-21.321)">
                                            <g transform="matrix(0.963204,0,0,0.963204,1113.89,417.957)">
                                                <path d="M613.581,1322.74C565.776,1309.77 517.971,1296.79 470.166,1283.82L470.166,1426.67C517.971,1439.66 565.776,1452.65 613.581,1465.64L613.581,1322.74Z" style="fill:rgb(144,132,0);"/>
                                            </g>
                                            <g transform="matrix(0.963204,0,0,0.963204,745.522,417.957)">
                                                <path d="M709.192,1244.89C661.386,1231.92 613.581,1218.94 565.776,1205.97L565.776,1348.72C613.581,1361.71 661.386,1374.7 709.192,1387.69L709.192,1244.89Z" style="fill:rgb(142,132,39);"/>
                                            </g>
                                            <g transform="matrix(0.963204,0,0,0.963204,1298.08,417.957)">
                                                <path d="M565.776,1361.67C517.971,1348.69 470.166,1335.72 422.36,1322.74L422.36,1465.64C470.166,1478.64 517.971,1491.63 565.776,1504.62L565.776,1361.67Z" style="fill:rgb(0,56,101);"/>
                                            </g>
                                            <g transform="matrix(0.963204,0,0,0.963204,1666.45,417.957)">
                                                <path d="M470.166,1439.52C422.36,1426.54 374.555,1413.57 326.75,1400.59L326.75,1543.6C374.555,1556.59 422.36,1569.58 470.166,1582.57L470.166,1439.52Z" style="fill:rgb(6,56,172);"/>
                                            </g>
                                            <g transform="matrix(0.963204,0,0,0.963204,1850.63,417.957)">
                                                <path d="M422.36,1478.44C374.555,1465.46 326.75,1452.49 278.945,1439.52L278.945,1582.57C326.75,1595.57 374.555,1608.56 422.36,1621.55L422.36,1478.44Z" style="fill:rgb(255,205,0);"/>
                                            </g>
                                            <g transform="matrix(0.963204,0,0,0.963204,561.338,417.957)">
                                                <path d="M756.997,1205.97C709.192,1193 661.386,1180.02 613.581,1167.05L613.581,1309.74C661.386,1322.73 709.192,1335.72 756.997,1348.72L756.997,1205.97Z" style="fill:rgb(200,16,47);"/>
                                            </g>
                                            <g transform="matrix(0.963204,0,0,0.963204,377.153,417.957)">
                                                <path d="M804.802,1167.05C756.997,1154.07 709.192,1141.1 661.386,1128.12L661.386,1270.76C709.192,1283.76 756.997,1296.75 804.802,1309.74L804.802,1167.05Z" style="fill:rgb(8,106,33);"/>
                                            </g>
                                            <g transform="matrix(0.963204,0,0,0.963204,192.969,417.957)">
                                                <path d="M852.607,1128.12C804.802,1115.15 756.997,1102.17 709.192,1089.2L709.192,1231.79C756.997,1244.78 804.802,1257.77 852.607,1270.76L852.607,1128.12Z" style="fill:rgb(0,61,165);"/>
                                            </g>
                                            <g transform="matrix(0.963204,0,0,0.963204,1482.26,417.957)">
                                                <path d="M517.971,1400.59C470.166,1387.62 422.36,1374.64 374.555,1361.67L374.555,1504.62C422.36,1517.61 470.166,1530.61 517.971,1543.6L517.971,1400.59Z" style="fill:white;"/>
                                            </g>
                                            <g transform="matrix(0.963204,0,0,0.963204,2034.81,417.957)">
                                                <path d="M374.555,1517.36C326.75,1504.39 278.945,1491.41 231.14,1478.44L231.14,1621.55C278.945,1634.54 326.75,1647.53 374.555,1660.53L374.555,1517.36Z" style="fill:rgb(42,49,125);"/>
                                            </g>
                                            <g transform="matrix(0.963204,0,0,0.963204,929.707,417.957)">
                                                <path d="M661.386,1283.82C613.581,1270.84 565.776,1257.87 517.971,1244.89L517.971,1387.69C565.776,1400.68 613.581,1413.68 661.386,1426.67L661.386,1283.82Z" style="fill:rgb(243,219,97);"/>
                                            </g>
                                        </g>
                                    </g>
                                </g>
                                <g transform="matrix(0.578741,0,0,0.578741,210.507,693.894)">
                                    <g transform="matrix(4.16667,0,0,4.16667,0,2655.32)">
                                        <path d="M507.083,-109.769C491.09,-114.138 475.097,-118.507 459.105,-122.876L459.105,-74.78C475.097,-70.406 491.09,-66.031 507.083,-61.656L507.083,-109.769Z" style="fill:rgb(178,34,52);"/>
                                    </g>
                                    <g transform="matrix(4.16667,0,0,4.16667,0,2655.32)">
                                        <path d="M459.583,-122.746C443.59,-127.115 427.598,-131.484 411.605,-135.853L411.605,-87.774C427.598,-83.399 443.59,-79.024 459.583,-74.65L459.583,-122.746Z" style="fill:rgb(178,34,52);"/>
                                    </g>
                                    <g transform="matrix(4.16667,0,0,4.16667,0,2655.32)">
                                        <path d="M412.083,-135.722C396.091,-140.091 380.098,-144.46 364.105,-148.83L364.105,-100.768C380.098,-96.393 396.091,-92.018 412.083,-87.643L412.083,-135.722Z" style="fill:rgb(178,34,52);"/>
                                    </g>
                                    <g transform="matrix(4.16667,0,0,4.16667,0,2655.32)">
                                        <path d="M364.584,-148.699C348.591,-153.068 332.598,-157.437 316.605,-161.806L316.605,-113.762C332.598,-109.387 348.591,-105.012 364.584,-100.637L364.584,-148.699Z" style="fill:rgb(178,34,52);"/>
                                    </g>
                                    <g transform="matrix(28.9173,0,0,4.16667,-4.54747e-13,2655.32)">
                                        <path d="M79.909,-96.793C63.917,-127.115 47.924,-157.437 31.931,-187.759L31.931,-139.75C47.924,-109.387 63.917,-79.024 79.909,-48.662L79.909,-96.793Z" style="fill:rgb(178,34,52);"/>
                                    </g>
                                    <g transform="matrix(4.16667,0,0,4.16667,0,2655.32)">
                                        <path d="M554.583,-96.793C538.59,-101.162 522.597,-105.531 506.604,-109.9L506.604,-61.787C522.597,-57.412 538.59,-53.037 554.583,-48.662L554.583,-96.793Z" style="fill:rgb(178,34,52);"/>
                                    </g>
                                    <g transform="matrix(4.16667,0,0,4.16667,0,2655.32)">
                                        <path d="M317.084,-161.675C301.091,-166.044 285.098,-170.414 269.105,-174.783L269.105,-126.756C285.098,-122.381 301.091,-118.006 317.084,-113.631L317.084,-161.675Z" style="fill:rgb(178,34,52);"/>
                                    </g>
                                    <g transform="matrix(4.16667,0,0,4.16667,0,2126.4)">
                                        <path d="M511.18,-28.864C491.748,-34.166 472.315,-39.468 452.883,-44.769L452.883,2.845C472.315,8.153 491.748,13.462 511.18,18.771L511.18,-28.864Z" style="fill:white;"/>
                                    </g>
                                    <g transform="matrix(5.409,0,0,4.16667,-354.064,2126.4)">
                                        <path d="M424.571,-41.14C408.738,-46.748 392.904,-52.355 377.071,-57.963L377.071,-10.367C392.904,-4.752 408.738,0.864 424.571,6.479L424.571,-41.14Z" style="fill:white;"/>
                                    </g>
                                    <g transform="matrix(4.16667,0,0,4.16667,0,2126.4)">
                                        <path d="M411.605,-56.031C395.772,-60.351 379.938,-64.671 364.105,-68.991L364.105,-21.409C379.938,-17.084 395.772,-12.758 411.605,-8.432L411.605,-56.031Z" style="fill:white;"/>
                                    </g>
                                    <g transform="matrix(4.16667,0,0,4.16667,0,2126.4)">
                                        <path d="M364.105,-68.991C348.272,-73.311 332.439,-77.631 316.605,-81.95L316.605,-34.386C332.439,-30.06 348.272,-25.735 364.105,-21.409L364.105,-68.991Z" style="fill:white;"/>
                                    </g>
                                    <g transform="matrix(29.2087,0,0,4.16667,0,2126.4)">
                                        <path d="M79.112,-17.022C63.279,-47.305 47.446,-77.587 31.612,-107.87L31.612,-60.339C47.446,-30.017 63.279,0.306 79.112,30.629L79.112,-17.022Z" style="fill:white;"/>
                                    </g>
                                    <g transform="matrix(4.16667,0,0,4.16667,0,2126.4)">
                                        <path d="M554.104,-17.153C538.271,-21.473 522.438,-25.792 506.604,-30.112L506.604,17.521C522.438,21.847 538.271,26.172 554.104,30.498L554.104,-17.153Z" style="fill:white;"/>
                                    </g>
                                    <g transform="matrix(4.16667,0,0,4.16667,0,2126.4)">
                                        <path d="M316.605,-81.95C300.772,-86.27 284.939,-90.59 269.105,-94.91L269.105,-47.363C284.939,-43.037 300.772,-38.711 316.605,-34.386L316.605,-81.95Z" style="fill:white;"/>
                                    </g>
                                    <g transform="matrix(4.16667,0,0,4.16667,0,1592.12)">
                                        <path d="M507.083,50.132C491.09,45.774 475.097,41.417 459.105,37.059L459.105,85.155C475.097,89.519 491.09,93.882 507.083,98.245L507.083,50.132Z" style="fill:rgb(178,34,52);"/>
                                    </g>
                                    <g transform="matrix(4.16667,0,0,4.16667,0,1592.12)">
                                        <path d="M459.583,37.19C443.59,32.832 427.598,28.475 411.605,24.117L411.605,72.196C427.598,76.559 443.59,80.922 459.583,85.286L459.583,37.19Z" style="fill:rgb(178,34,52);"/>
                                    </g>
                                    <g transform="matrix(4.16667,0,0,4.16667,0,1592.12)">
                                        <path d="M412.083,24.247C396.091,19.89 380.098,15.532 364.105,11.175L364.105,59.236C380.098,63.599 396.091,67.963 412.083,72.326L412.083,24.247Z" style="fill:rgb(178,34,52);"/>
                                    </g>
                                    <g transform="matrix(4.16667,0,0,4.16667,0,1592.12)">
                                        <path d="M364.584,11.305C348.591,6.948 332.598,2.59 316.605,-1.767L316.605,46.277C332.598,50.64 348.591,55.003 364.584,59.367L364.584,11.305Z" style="fill:rgb(178,34,52);"/>
                                    </g>
                                    <g transform="matrix(28.9173,0,0,4.16667,0,1592.12)">
                                        <path d="M79.909,63.074C63.917,32.832 47.924,2.59 31.931,-27.652L31.931,20.357C47.924,50.64 63.917,80.922 79.909,111.205L79.909,63.074Z" style="fill:rgb(178,34,52);"/>
                                    </g>
                                    <g transform="matrix(4.16667,0,0,4.16667,0,1592.12)">
                                        <path d="M554.583,63.074C538.59,58.716 522.597,54.359 506.604,50.001L506.604,98.115C522.597,102.478 538.59,106.841 554.583,111.205L554.583,63.074Z" style="fill:rgb(178,34,52);"/>
                                    </g>
                                    <g transform="matrix(4.16667,0,0,4.16667,0,1592.12)">
                                        <path d="M317.084,-1.637C301.091,-5.995 285.098,-10.352 269.105,-14.71L269.105,33.317C285.098,37.68 301.091,42.044 317.084,46.407L317.084,-1.637Z" style="fill:rgb(178,34,52);"/>
                                    </g>
                                    <g transform="matrix(4.16667,0,0,4.16667,0,1060.52)">
                                        <path d="M507.083,130.082C491.09,125.73 475.097,121.379 459.105,117.027L459.105,165.123C475.097,169.481 491.09,173.838 507.083,178.196L507.083,130.082Z" style="fill:white;"/>
                                    </g>
                                    <g transform="matrix(4.16667,0,0,4.16667,0,1060.52)">
                                        <path d="M459.583,117.157C443.59,112.805 427.598,108.454 411.605,104.102L411.605,152.181C427.598,156.538 443.59,160.896 459.583,165.253L459.583,117.157Z" style="fill:white;"/>
                                    </g>
                                    <g transform="matrix(4.16667,0,0,4.16667,0,1060.52)">
                                        <path d="M412.083,104.232C396.091,99.88 380.098,95.529 364.105,91.177L364.105,139.238C380.098,143.596 396.091,147.953 412.083,152.311L412.083,104.232Z" style="fill:white;"/>
                                    </g>
                                    <g transform="matrix(4.16667,0,0,4.16667,0,1060.52)">
                                        <path d="M364.584,91.307C348.591,86.955 332.598,82.604 316.605,78.252L316.605,126.296C332.598,130.653 348.591,135.011 364.584,139.369L364.584,91.307Z" style="fill:white;"/>
                                    </g>
                                    <g transform="matrix(28.9173,0,0,4.16667,0,1060.52)">
                                        <path d="M79.909,143.007C63.917,112.805 47.924,82.604 31.931,52.402L31.931,100.411C47.924,130.653 63.917,160.896 79.909,191.138L79.909,143.007Z" style="fill:white;"/>
                                    </g>
                                    <g transform="matrix(4.16667,0,0,4.16667,0,1060.52)">
                                        <path d="M554.583,143.007C538.59,138.656 522.597,134.304 506.604,129.952L506.604,178.065C522.597,182.423 538.59,186.781 554.583,191.138L554.583,143.007Z" style="fill:white;"/>
                                    </g>
                                    <g transform="matrix(4.16667,0,0,4.16667,0,1060.52)">
                                        <path d="M317.084,78.382C301.091,74.03 285.098,69.679 269.105,65.327L269.105,113.353C285.098,117.711 301.091,122.069 317.084,126.426L317.084,78.382Z" style="fill:white;"/>
                                    </g>
                                    <g transform="matrix(1,0,0,1.01595,0,-29.6719)">
                                        <g transform="matrix(4.16667,0,0,4.16667,5.68434e-14,528.917)">
                                            <path d="M507.083,210.997C491.09,206.72 475.097,202.442 459.105,198.164L459.105,246.26C475.097,250.544 491.09,254.827 507.083,259.111L507.083,210.997Z" style="fill:rgb(178,34,52);"/>
                                        </g>
                                        <g transform="matrix(4.16667,0,0,4.16667,5.68434e-14,528.917)">
                                            <path d="M459.583,198.292C443.59,194.015 427.598,189.737 411.605,185.459L411.605,233.538C427.598,237.822 443.59,242.105 459.583,246.389L459.583,198.292Z" style="fill:rgb(178,34,52);"/>
                                        </g>
                                        <g transform="matrix(4.16667,0,0,4.16667,5.68434e-14,528.917)">
                                            <path d="M412.083,185.587C396.091,181.31 380.098,177.032 364.105,172.754L364.105,220.816C380.098,225.099 396.091,229.383 412.083,233.666L412.083,185.587Z" style="fill:rgb(178,34,52);"/>
                                        </g>
                                        <g transform="matrix(4.16667,0,0,4.16667,5.68434e-14,528.917)">
                                            <path d="M364.584,172.883C348.591,168.605 332.598,164.327 316.605,160.05L316.605,208.093C332.598,212.377 348.591,216.66 364.584,220.944L364.584,172.883Z" style="fill:rgb(178,34,52);"/>
                                        </g>
                                        <g transform="matrix(28.9173,0,0,4.16667,-6.0246e-14,528.917)">
                                            <path d="M79.909,223.702C63.917,194.015 47.924,164.327 31.931,134.64L31.931,182.649C47.924,212.377 63.917,242.105 79.909,271.833L79.909,223.702Z" style="fill:rgb(178,34,52);"/>
                                        </g>
                                        <g transform="matrix(4.16667,0,0,4.16667,5.68434e-14,528.917)">
                                            <path d="M554.583,223.702C538.59,219.425 522.597,215.147 506.604,210.869L506.604,258.983C522.597,263.266 538.59,267.55 554.583,271.833L554.583,223.702Z" style="fill:rgb(178,34,52);"/>
                                        </g>
                                        <g transform="matrix(4.16667,0,0,4.16667,5.68434e-14,528.917)">
                                            <path d="M317.084,160.178C301.091,155.9 285.098,151.622 269.105,147.345L269.105,195.371C285.098,199.655 301.091,203.938 317.084,208.222L317.084,160.178Z" style="fill:rgb(178,34,52);"/>
                                        </g>
                                    </g>
                                    <g>
                                        <g transform="matrix(4.16667,0,0,4.16667,5.68434e-14,-534.282)">
                                            <path d="M507.083,369.934C491.09,365.599 475.097,361.265 459.105,356.93L459.105,405.026C475.097,409.367 491.09,413.707 507.083,418.047L507.083,369.934Z" style="fill:rgb(60,59,110);"/>
                                        </g>
                                        <g transform="matrix(4.16667,0,0,4.16667,5.68434e-14,-534.282)">
                                            <path d="M459.583,357.06C443.59,352.726 427.598,348.391 411.605,344.057L411.605,392.136C427.598,396.476 443.59,400.816 459.583,405.156L459.583,357.06Z" style="fill:rgb(60,59,110);"/>
                                        </g>
                                        <g transform="matrix(4.16667,0,0,4.16667,5.68434e-14,-534.282)">
                                            <path d="M412.083,344.187C396.091,339.852 380.098,335.518 364.105,331.183L364.105,379.245C380.098,383.585 396.091,387.925 412.083,392.265L412.083,344.187Z" style="fill:rgb(60,59,110);"/>
                                        </g>
                                        <g transform="matrix(4.16667,0,0,4.16667,5.68434e-14,-534.282)">
                                            <path d="M364.584,331.313C348.591,326.979 332.598,322.644 316.605,318.31L316.605,366.354C332.598,370.694 348.591,375.034 364.584,379.375L364.584,331.313Z" style="fill:rgb(60,59,110);"/>
                                        </g>
                                        <g transform="matrix(4.16667,0,0,4.16667,5.68434e-14,-534.282)">
                                            <path d="M269.584,305.566C253.591,301.232 237.599,296.897 221.606,292.563L221.606,340.572C237.599,344.912 253.591,349.253 269.584,353.593L269.584,305.566Z" style="fill:rgb(60,59,110);"/>
                                        </g>
                                        <g transform="matrix(4.16667,0,0,4.16667,5.68434e-14,-534.282)">
                                            <path d="M554.583,382.807C538.59,378.473 522.597,374.138 506.604,369.804L506.604,417.917C522.597,422.258 538.59,426.598 554.583,430.938L554.583,382.807Z" style="fill:rgb(60,59,110);"/>
                                        </g>
                                        <g transform="matrix(4.16667,0,0,4.16667,5.68434e-14,-534.282)">
                                            <path d="M317.084,318.44C301.091,314.105 285.098,309.771 269.105,305.436L269.105,353.463C285.098,357.803 301.091,362.143 317.084,366.484L317.084,318.44Z" style="fill:rgb(60,59,110);"/>
                                        </g>
                                        <g transform="matrix(4.16667,0,0,4.16667,5.68434e-14,-1065.88)">
                                            <path d="M459.583,437.028C443.59,432.699 427.598,428.371 411.605,424.042L411.605,472.121C427.598,476.455 443.59,480.789 459.583,485.124L459.583,437.028Z" style="fill:rgb(60,59,110);"/>
                                        </g>
                                        <g transform="matrix(4.16667,0,0,4.16667,5.68434e-14,-1065.88)">
                                            <path d="M506.604,449.754C490.611,445.426 474.618,441.097 458.625,436.769L458.625,484.864C474.618,489.199 490.611,493.533 506.604,497.868L506.604,449.754Z" style="fill:rgb(60,59,110);"/>
                                        </g>
                                        <g transform="matrix(4.16667,0,0,4.16667,5.68434e-14,-1065.88)">
                                            <path d="M412.083,424.171C396.091,419.843 380.098,415.514 364.105,411.186L364.105,459.247C380.098,463.581 396.091,467.916 412.083,472.25L412.083,424.171Z" style="fill:rgb(60,59,110);"/>
                                        </g>
                                        <g transform="matrix(4.16667,0,0,4.16667,5.68434e-14,-1065.88)">
                                            <path d="M317.084,398.459C301.091,394.13 285.098,389.801 269.105,385.473L269.105,433.499C285.098,437.834 301.091,442.168 317.084,446.503L317.084,398.459Z" style="fill:rgb(60,59,110);"/>
                                        </g>
                                        <g transform="matrix(4.16667,0,0,4.16667,5.68434e-14,-1065.88)">
                                            <path d="M364.584,411.315C348.591,406.986 332.598,402.658 316.605,398.329L316.605,446.373C332.598,450.708 348.591,455.042 364.584,459.377L364.584,411.315Z" style="fill:rgb(60,59,110);"/>
                                        </g>
                                        <g transform="matrix(4.16667,0,0,4.16667,5.68434e-14,-1065.88)">
                                            <path d="M269.584,385.602C253.591,381.274 237.599,376.945 221.606,372.617L221.606,420.626C237.599,424.96 253.591,429.295 269.584,433.629L269.584,385.602Z" style="fill:rgb(60,59,110);"/>
                                        </g>
                                        <g transform="matrix(4.16667,0,0,4.16667,5.68434e-14,-1065.88)">
                                            <path d="M554.583,462.74C538.59,458.412 522.597,454.083 506.604,449.755L506.604,497.868C522.597,502.202 538.59,506.537 554.583,510.871L554.583,462.74Z" style="fill:rgb(60,59,110);"/>
                                        </g>
                                        <g transform="matrix(4.16667,0,0,4.16667,5.68434e-14,-797.399)">
                                            <path d="M412.083,383.775C396.091,379.444 380.098,375.112 364.105,370.781L364.105,418.842C380.098,423.179 396.091,427.517 412.083,431.854L412.083,383.775Z" style="fill:white;"/>
                                        </g>
                                        <g transform="matrix(4.16667,0,0,4.16667,5.68434e-14,-797.399)">
                                            <path d="M530.593,415.873C514.6,411.541 498.608,407.21 482.615,402.878L482.615,450.983C498.608,455.32 514.6,459.658 530.593,463.995L530.593,415.873Z" style="fill:white;"/>
                                        </g>
                                        <g transform="matrix(4.16667,0,0,4.16667,5.68434e-14,-797.399)">
                                            <path d="M293.095,351.548C277.102,347.216 261.109,342.885 245.116,338.553L245.116,386.571C261.109,390.909 277.102,395.246 293.095,399.583L293.095,351.548Z" style="fill:white;"/>
                                        </g>
                                        <g transform="matrix(4.16667,0,0,4.16667,5.68434e-14,-1597.47)">
                                            <path d="M507.083,529.833C491.09,525.51 475.097,521.188 459.105,516.865L459.105,564.961C475.097,569.289 491.09,573.618 507.083,577.947L507.083,529.833Z" style="fill:rgb(60,59,110);"/>
                                        </g>
                                        <g transform="matrix(4.16667,0,0,4.16667,5.68434e-14,-1597.47)">
                                            <path d="M412.334,504.223C396.112,499.838 379.89,495.453 363.668,491.068L363.668,539.129C379.89,543.52 396.112,547.911 412.334,552.302L412.334,504.223Z" style="fill:rgb(60,59,110);"/>
                                        </g>
                                        <g transform="matrix(4.16667,0,0,4.16667,5.68434e-14,-1597.47)">
                                            <path d="M269.584,465.638C253.591,461.315 237.599,456.992 221.606,452.669L221.606,500.678C237.599,505.007 253.591,509.336 269.584,513.664L269.584,465.638Z" style="fill:rgb(60,59,110);"/>
                                        </g>
                                        <g transform="matrix(4.16667,0,0,4.16667,5.68434e-14,-1597.47)">
                                            <path d="M554.583,542.672C538.59,538.35 522.597,534.027 506.604,529.704L506.604,577.817C522.597,582.146 538.59,586.475 554.583,590.803L554.583,542.672Z" style="fill:rgb(60,59,110);"/>
                                        </g>
                                        <g transform="matrix(4.16667,0,0,4.16667,5.68434e-14,-1597.47)">
                                            <path d="M460.029,517.115C444.036,512.792 428.043,508.469 412.05,504.146L412.05,552.225C428.043,556.554 444.036,560.882 460.029,565.211L460.029,517.115Z" style="fill:rgb(60,59,110);"/>
                                        </g>
                                        <g transform="matrix(4.16667,0,0,4.16667,5.68434e-14,-1597.5)">
                                            <path d="M364.355,491.258C348.362,486.935 332.369,482.612 316.377,478.289L316.377,526.333C332.369,530.662 348.362,534.99 364.355,539.319L364.355,491.258Z" style="fill:rgb(60,59,110);"/>
                                        </g>
                                        <g transform="matrix(4.16667,0,0,4.16667,5.68434e-14,-1597.47)">
                                            <path d="M317.084,478.477C301.091,474.154 285.098,469.831 269.105,465.508L269.105,513.535C285.098,517.863 301.091,522.192 317.084,526.521L317.084,478.477Z" style="fill:rgb(60,59,110);"/>
                                        </g>
                                        <g transform="matrix(4.16667,0,0,4.16667,5.68434e-14,-1597.47)">
                                            <path d="M350.423,487.488C334.43,483.165 318.437,478.842 302.445,474.52L302.445,522.558C318.437,526.887 334.43,531.216 350.423,535.544L350.423,487.488Z" style="fill:white;"/>
                                        </g>
                                        <g transform="matrix(4.16667,0,0,4.16667,5.68434e-14,-1597.49)">
                                            <path d="M473.719,520.818C457.727,516.496 441.735,512.173 425.742,507.85L425.742,555.932C441.735,560.261 457.727,564.589 473.719,568.918L473.719,520.818Z" style="fill:white;"/>
                                        </g>
                                        <g transform="matrix(4.16667,0,0,4.16667,5.68434e-14,-2655.32)">
                                            <path d="M507.083,688.928C491.09,684.617 475.097,680.306 459.105,675.994L459.105,724.09C475.097,728.408 491.09,732.725 507.083,737.042L507.083,688.928Z" style="fill:rgb(60,59,110);"/>
                                        </g>
                                        <g transform="matrix(4.16667,0,0,4.16667,5.68434e-14,-2655.32)">
                                            <path d="M459.583,676.123C443.59,671.812 427.598,667.501 411.605,663.189L411.605,711.268C427.598,715.585 443.59,719.902 459.583,724.22L459.583,676.123Z" style="fill:rgb(60,59,110);"/>
                                        </g>
                                        <g transform="matrix(4.16667,0,0,4.16667,5.68434e-14,-2655.32)">
                                            <path d="M412.083,663.318C396.091,659.007 380.098,654.696 364.105,650.384L364.105,698.446C380.098,702.763 396.091,707.08 412.083,711.397L412.083,663.318Z" style="fill:rgb(60,59,110);"/>
                                        </g>
                                        <g transform="matrix(4.16667,0,0,4.16667,5.68434e-14,-2655.32)">
                                            <path d="M364.584,650.513C348.591,646.202 332.598,641.891 316.605,637.579L316.605,685.623C332.598,689.941 348.591,694.258 364.584,698.575L364.584,650.513Z" style="fill:rgb(60,59,110);"/>
                                        </g>
                                        <g transform="matrix(4.16667,0,0,4.16667,5.68434e-14,-2655.32)">
                                            <path d="M269.584,624.903C253.591,620.592 237.599,616.281 221.606,611.969L221.606,659.979C237.599,664.296 253.591,668.613 269.584,672.93L269.584,624.903Z" style="fill:rgb(60,59,110);"/>
                                        </g>
                                        <g transform="matrix(4.16667,0,0,4.16667,5.68434e-14,-2655.32)">
                                            <path d="M554.583,701.733C538.59,697.422 522.597,693.111 506.604,688.799L506.604,736.913C522.597,741.23 538.59,745.547 554.583,749.864L554.583,701.733Z" style="fill:rgb(60,59,110);"/>
                                        </g>
                                        <g transform="matrix(4.16667,0,0,4.16667,5.68434e-14,-2655.32)">
                                            <path d="M317.084,637.708C301.091,633.397 285.098,629.086 269.105,624.774L269.105,672.801C285.098,677.118 301.091,681.435 317.084,685.753L317.084,637.708Z" style="fill:rgb(60,59,110);"/>
                                        </g>
                                        <g transform="matrix(4.16667,0,0,4.16667,5.68434e-14,-2129.07)">
                                            <path d="M459.583,596.962C443.59,592.645 427.598,588.328 411.605,584.011L411.605,632.089C427.598,636.412 443.59,640.735 459.583,645.058L459.583,596.962Z" style="fill:rgb(60,59,110);"/>
                                        </g>
                                        <g transform="matrix(4.16667,0,0,4.16667,5.68434e-14,-2129.07)">
                                            <path d="M364.584,571.318C348.591,567.001 332.598,562.684 316.605,558.367L316.605,606.411C332.598,610.733 348.591,615.056 364.584,619.379L364.584,571.318Z" style="fill:rgb(60,59,110);"/>
                                        </g>
                                        <g transform="matrix(4.16667,0,0,4.16667,5.68434e-14,-2129.07)">
                                            <path d="M269.584,545.674C253.591,541.357 237.599,537.04 221.606,532.723L221.606,580.732C237.599,585.055 253.591,589.378 269.584,593.701L269.584,545.674Z" style="fill:rgb(60,59,110);"/>
                                        </g>
                                        <g transform="matrix(4.16667,0,0,4.16667,5.68434e-14,-2129.07)">
                                            <path d="M554.583,622.606C538.59,618.289 522.597,613.972 506.604,609.655L506.604,657.768C522.597,662.091 538.59,666.414 554.583,670.737L554.583,622.606Z" style="fill:rgb(60,59,110);"/>
                                        </g>
                                        <g transform="matrix(4.16667,0,0,4.16667,5.68434e-14,-2129.89)">
                                            <path d="M507.083,609.907C491.09,605.59 475.097,601.272 459.105,596.955L459.105,645.051C475.097,649.374 491.09,653.697 507.083,658.02L507.083,609.907Z" style="fill:rgb(60,59,110);"/>
                                        </g>
                                        <g transform="matrix(4.16667,0,0,4.16667,5.68434e-14,-2129.89)">
                                            <path d="M412.083,584.263C396.091,579.946 380.098,575.629 364.105,571.312L364.105,619.373C380.098,623.696 396.091,628.019 412.083,632.342L412.083,584.263Z" style="fill:rgb(60,59,110);"/>
                                        </g>
                                        <g transform="matrix(4.16667,0,0,4.16667,5.68434e-14,-2129.89)">
                                            <path d="M317.035,558.605C301.042,554.288 285.049,549.971 269.056,545.654L269.056,593.681C285.049,598.004 301.042,602.327 317.035,606.65L317.035,558.605Z" style="fill:rgb(60,59,110);"/>
                                        </g>
                                        <g transform="matrix(4.16667,0,0,4.16667,5.68434e-14,-2386.84)">
                                            <path d="M531.072,655.022C515.079,650.708 499.086,646.394 483.093,642.079L483.093,690.184C499.086,694.504 515.079,698.824 531.072,703.144L531.072,655.022Z" style="fill:white;"/>
                                        </g>
                                        <g transform="matrix(4.16667,0,0,4.16667,5.68434e-14,-2386.84)">
                                            <path d="M411.605,622.794C395.612,618.48 379.619,614.166 363.627,609.852L363.627,657.913C379.619,662.233 395.612,666.553 411.605,670.873L411.605,622.794Z" style="fill:white;"/>
                                        </g>
                                        <g transform="matrix(4.16667,0,0,4.16667,5.68434e-14,-2386.84)">
                                            <path d="M293.095,590.825C277.102,586.511 261.109,582.196 245.116,577.882L245.116,625.9C261.109,630.22 277.102,634.54 293.095,638.86L293.095,590.825Z" style="fill:white;"/>
                                        </g>
                                    </g>
                                    <g transform="matrix(1,0,0,0.990549,0,11.2837)">
                                        <g transform="matrix(4.16667,0,0,4.16667,5.68434e-14,-2.6825)">
                                            <path d="M507.083,289.784C491.09,285.402 475.097,281.02 459.105,276.639L459.105,324.735C475.097,329.122 491.09,333.51 507.083,337.897L507.083,289.784Z" style="fill:white;"/>
                                        </g>
                                        <g transform="matrix(4.16667,0,0,4.16667,5.68434e-14,-2.6825)">
                                            <path d="M459.583,276.77C443.59,272.388 427.598,268.007 411.605,263.625L411.605,311.704C427.598,316.091 443.59,320.479 459.583,324.866L459.583,276.77Z" style="fill:white;"/>
                                        </g>
                                        <g transform="matrix(4.16667,0,0,4.16667,5.68434e-14,-2.6825)">
                                            <path d="M412.083,263.756C396.091,259.375 380.098,254.993 364.105,250.612L364.105,298.673C380.098,303.06 396.091,307.448 412.083,311.835L412.083,263.756Z" style="fill:white;"/>
                                        </g>
                                        <g transform="matrix(4.16667,0,0,4.16667,5.68434e-14,-2.6825)">
                                            <path d="M364.584,250.743C348.591,246.361 332.598,241.98 316.605,237.598L316.605,285.642C332.598,290.029 348.591,294.417 364.584,298.804L364.584,250.743Z" style="fill:white;"/>
                                        </g>
                                        <g transform="matrix(28.9173,0,0,4.16667,-6.0246e-14,-2.6825)">
                                            <path d="M79.909,302.797C63.917,272.388 47.924,241.98 31.931,211.571L31.931,259.58C47.924,290.029 63.917,320.479 79.909,350.928L79.909,302.797Z" style="fill:white;"/>
                                        </g>
                                        <g transform="matrix(4.16667,0,0,4.16667,5.68434e-14,-2.6825)">
                                            <path d="M554.583,302.797C538.59,298.416 522.597,294.034 506.604,289.652L506.604,337.766C522.597,342.153 538.59,346.541 554.583,350.928L554.583,302.797Z" style="fill:white;"/>
                                        </g>
                                        <g transform="matrix(4.16667,0,0,4.16667,5.68434e-14,-2.6825)">
                                            <path d="M317.084,237.729C301.091,233.348 285.098,228.966 269.105,224.584L269.105,272.611C285.098,276.998 301.091,281.386 317.084,285.773L317.084,237.729Z" style="fill:white;"/>
                                        </g>
                                    </g>
                                </g>
                            </g>
                        </g>
                    </g>
                </g>
            </g>
        </g>
    </g>
</svg>
