<?xml version="1.0" encoding="UTF-8" standalone="no"?>
<!DOCTYPE svg PUBLIC "-//W3C//DTD SVG 1.1//EN" "http://www.w3.org/Graphics/SVG/1.1/DTD/svg11.dtd">
<svg width="100%" height="100%" viewBox="0 0 130 129" version="1.1" xmlns="http://www.w3.org/2000/svg" xmlns:xlink="http://www.w3.org/1999/xlink" xml:space="preserve" xmlns:serif="http://www.serif.com/" style="fill-rule:evenodd;clip-rule:evenodd;stroke-linejoin:round;stroke-miterlimit:2;">
    <g transform="matrix(1.08572,0,0,1.14656,0.676792,-16.5798)">
        <path d="M58.825,18.456L105.82,41.615L11.831,41.615L58.825,18.456Z" style="fill:rgb(22,70,92);"/>
    </g>
    <g transform="matrix(1.08572,0,0,-1.14656,0.676792,140.585)">
        <path d="M58.825,18.456L105.82,41.615L11.831,41.615L58.825,18.456Z" style="fill:rgb(22,70,92);"/>
    </g>
    <rect x="12.021" y="28.107" width="103.547" height="69.343" style="fill:rgb(22,70,92);"/>
    <path d="M124,61.18C124,72.98 123.9,84.68 124.1,96.48C124.2,100.98 122.5,103.58 118.4,105.48C101.9,112.78 85.5,120.48 68.9,127.58C65.976,128.611 62.775,128.539 59.9,127.38C42.8,119.98 25.9,112.18 8.9,104.58C5.4,102.98 4.9,99.88 4.9,96.58L4.9,26.88C4.9,19.58 5.8,18.38 12.5,16.18C27.7,11.18 42.8,6.08 58.2,1.58C62.416,0.38 66.884,0.38 71.1,1.58C86.3,6.08 101.3,11.38 116.3,16.38C122.6,18.48 123.8,20.08 123.9,26.98C124,38.18 124,49.68 124,61.18ZM19.24,34.38C19.24,53.98 19.24,72.88 19.34,91.68C19.556,92.918 20.331,93.989 21.44,94.58C29.04,98.18 36.64,101.68 44.34,105.18C48.84,107.18 53.34,109.18 58.14,111.28C58.14,91.58 58.14,72.48 58.04,53.48C57.906,52.476 57.362,51.571 56.54,50.98C44.44,45.48 32.24,40.08 19.24,34.38ZM110.54,34.08C98.24,39.78 86.74,45.18 75.24,50.38C73.04,51.38 72.34,52.58 72.34,54.98C72.44,71.58 72.44,88.18 72.44,104.78L72.44,110.08C72.44,110.08 72.34,110.38 72.54,110.48C72.74,110.58 97.44,99.58 109.14,94.28C109.981,93.675 110.498,92.715 110.54,91.68C110.64,72.78 110.64,53.88 110.54,34.08ZM32.14,24.48C32.14,24.58 53.94,34.48 64.54,39.18C65.29,39.448 66.116,39.412 66.84,39.08C76.94,34.48 86.94,29.78 98.14,24.68C88.94,21.68 80.84,18.88 72.74,16.38C69.74,15.48 66.34,13.68 63.64,14.48C53.24,17.08 32.14,24.28 32.14,24.48Z" style="fill:white;fill-rule:nonzero;"/>
</svg>
