<?xml version="1.0" encoding="UTF-8" standalone="no"?>
<!DOCTYPE svg PUBLIC "-//W3C//DTD SVG 1.1//EN" "http://www.w3.org/Graphics/SVG/1.1/DTD/svg11.dtd">
<svg width="100%" height="100%" viewBox="0 0 3334 3334" version="1.1" xmlns="http://www.w3.org/2000/svg" xmlns:xlink="http://www.w3.org/1999/xlink" xml:space="preserve" xmlns:serif="http://www.serif.com/" style="fill-rule:evenodd;clip-rule:evenodd;stroke-linejoin:round;stroke-miterlimit:2;">
    <g transform="matrix(5.55556,0,0,5.55556,0,0)">
        <g transform="matrix(0.1,0,0,-0.1,0,600)">
            <g transform="matrix(10.9029,0,0,-10.9029,-149.949,6531.95)">
                <circle cx="287.754" cy="324.059" r="261.432" style="fill:rgb(46,67,84);"/>
            </g>
            <g transform="matrix(10,0,0,-10,0,6000)">
                <path d="M299.9,11C328.3,11 330.5,11.032 336.5,11.958C340.519,12.579 352.002,14.097 355.334,14.866C380.444,20.059 422.2,34.6 449,50.8C469.9,63.4 495,82.9 507,95.7C530.6,121.2 544.4,140.5 558.4,168.1C573.9,198.4 580.434,220.878 587.834,263.878C589.134,271.078 589.268,310.512 589.082,317.928C588.983,321.875 586.6,347.6 585.9,351.5C584.8,358.2 581.2,373.1 577.2,387C572.6,403 557.3,436.4 546.3,454C540.5,463.4 526.4,482.5 519.1,490.9C499.2,513.8 475.3,533.5 446.9,550.5C420.1,566.5 379.5,581.9 355,585.5C352.5,585.9 350.673,586.272 347.817,586.491C344.834,586.72 323.334,589.363 301.534,589.563C277.448,589.848 266.617,588.347 257,587.2C249.768,586.338 243.246,585.504 232,582.8C224.1,581 219.8,579.8 206.4,575.6C199.2,573.4 173.7,562.5 166.5,558.6C146.1,547.5 142.7,545.3 125,532.1C110,521 79.6,490.6 67.8,475C59.6,464 45.6,442.1 40.4,431.7C30.3,412 17.7,374.8 14.9,356.5C14.2,352.6 13.4,347.2 12.9,344.5C10.5,330.6 9.6,317.5 9.6,298C9.6,277.3 9.8,273.7 12.1,258.5C17.8,221.9 29.7,186.8 46.3,158C69.5,117.7 102,83 140.6,57.2C160,44.3 193.8,28.1 212.3,23C236.9,16.1 238.7,15.7 256.3,13.2C260,12.5 280.3,11 299.9,11ZM319.515,477.719C319.313,477.181 318.903,475.502 318.903,475.502L318.253,469.996C317.553,455.896 322,447.1 343,422.4C357.1,405.7 360.9,401.3 365.1,396.7C370.7,390.4 372,388 372,384.2C372,380.2 376,369 380.8,359.5C385.5,350.1 394.8,337.4 401.6,330.9C413.7,319.6 432.3,308.9 448,304.4C456.5,302 457.7,301.9 473.7,302.4C482.9,302.7 494.6,303.3 499.5,303.6C504.6,303.9 511.5,303.7 515.5,303.1C546.4,298 564.5,293.5 568.1,289.9C569.7,288.3 570,286.6 570,279.3C570,274.5 569.6,268.1 569,265.1C568.5,262 567.6,256.3 566.9,252.5C565,240.8 559.1,218.2 555.6,209.1C553.7,204.4 551.9,199.4 551.5,198C548.7,188.9 527.2,150.4 518.1,138.5C495.6,108.8 468.5,84.7 435.1,64.6C424.7,58.3 420.7,56.4 403.5,49.3C384.9,41.6 358.5,34.4 336.5,31.1C322.2,28.9 279.4,29.4 260,31.9C223.2,36.7 181.5,52.8 148,75.3C130.9,86.7 103.4,111.7 89.6,128.4C79.2,140.9 62.1,167.5 55,182.1C50.6,191.2 50.4,192.2 52.3,193.9C56,196.9 75.9,185.7 84.1,176C86.5,173 100,158.9 114,144.5C128,130.1 141.9,115.5 144.9,112.1C150.7,105.5 161.9,96.6 168.5,93.3C177,89.1 209.3,83 233.9,81C246.2,80 253.3,80.3 325,85.9C338.8,87 344.9,88.3 346.8,90.8C348.2,92.7 348.4,98.2 347.1,102.8C346.589,104.57 344.675,107.075 344.88,108.037C345.195,109.52 348.21,109.051 351,109.9C353.2,110.5 355.4,111.9 355.9,112.8C359,118.7 357.8,127.9 353.2,133.1C351.7,134.7 347.1,137.8 343,139.8C338.799,141.9 334.786,142.202 333.769,143.482C333.091,144.334 332.902,147.487 332.583,148.967C330.783,156.111 330.841,156.289 327.292,159.551C323.184,163.328 312.5,167 307.5,167C305.6,167 280.1,167.3 271.9,169.1C257.2,172.3 254.3,172.5 252,170.5C249.5,168.3 249.4,163.8 251.8,161.8C255.3,158.7 273.5,156 290.1,156C307.6,156 314.1,154.7 319.2,150.1C324.2,145.6 322.7,144 313.4,144C309.2,144 273.3,144.1 268.1,144.2C261.744,144.403 259.784,144.326 258.624,143.482C258.069,143.077 257.586,142.607 257.1,141.7C256.378,140.462 256.291,139.696 256.3,138.908C256.308,138.168 256.37,137.411 257,136.2C258.4,133.8 259.3,133.4 266,132.7C270.1,132.3 287.2,131.6 304,131.2C332.8,130.5 334.7,130.4 338.6,128.3C343,125.9 344.7,123.3 343,121.6C341.4,120 283.5,120.2 269,121.9C262.7,122.6 254.798,123.408 251.498,123.708C251.498,123.708 250.347,123.653 250.152,123.628C249.725,123.574 249.3,123.494 248.839,123.364C248.519,123.274 248.284,123.23 247.98,123.079C247.819,122.999 247.69,122.885 247.555,122.772C247.017,122.323 246.766,121.995 246.412,121.385C246.084,120.82 245.918,120.178 245.799,119.541C245.734,119.188 245.666,118.861 245.607,118.508C245.556,118.198 245.531,117.843 245.522,117.528C245.506,116.984 245.522,116.24 245.577,115.878C245.619,115.602 245.884,114.982 245.917,114.932C248.114,111.626 248.8,111.9 261.5,110.9C268.7,110.4 295.7,108 303.6,108.4C321.3,109.3 321.5,109.3 327.1,106.5C332.8,103.6 333.8,100.4 329.3,99.5C327.7,99.1 325.6,98.7 324.5,98.4C322.6,97.9 315.4,97.2 288.5,95C282.5,94.5 272.6,93.6 266.5,93.1C239.6,90.7 244.3,90.5 210.3,96.1C199,98 184.3,101 179.2,102.5C171.5,104.8 162.8,111.4 151.8,123.2C146.1,129.3 130.2,145.8 116.4,159.9C102.6,174 90.6,186.5 89.8,187.7C85.2,194.8 62.8,207 54.6,207C49,207 44.6,209.3 42.7,213.1C40.3,218.3 36.4,232.4 34,244.6C32.9,250.6 31.5,257.7 31,260.3C29.8,266.1 29.7,275 30.8,276.7C32.1,278.8 37.2,280.2 46,281.1C57.6,282.2 70.4,283.8 77,285C92.3,287.7 103.2,286.9 117.4,282C133.6,276.5 151.4,263.4 162.6,248.8C171,237.7 181,214.2 181,205.1C181,204 184,199.7 187.8,195.6C193.7,189 197.6,184.6 210.6,169.2C231.4,144.8 236.5,134.5 231.2,128C228.5,124.7 226,125.8 215,135.1C209.8,139.5 201.7,146.1 197.1,149.8C192.5,153.5 186.7,158.2 184.3,160.3C181.8,162.4 176.3,165.9 172.1,168.1C167.9,170.3 160.7,174.3 156,177C147.1,182.2 143.2,183 140.6,180.4C136.8,176.7 139.2,171.9 146.8,168.1C157.9,162.5 175,152.1 179.6,148.3C182.1,146.2 186.5,142.5 189.5,140C192.4,137.5 197.3,133.5 200.5,131C203.7,128.5 208.6,124.5 211.5,122C223.3,111.8 226.1,110 229.9,110C232.9,110 234.3,110.8 237.5,114C239.6,116.2 242.315,118.939 242.615,119.359C242.967,119.851 244.531,121.778 244.695,122.323C244.768,122.564 244.871,122.801 244.971,123.034C245.183,123.526 245.309,124.054 245.455,124.566C245.475,124.634 245.492,124.716 245.501,124.786L245.7,129.9C246,135.5 243.9,145.4 241.5,150C240.8,151.4 237.3,156.3 233.9,160.9C230.4,165.5 227.1,169.8 226.6,170.5C224.7,173 227.8,174.7 235.3,175.3C246.6,176.3 251.7,177.5 263.5,182.1C273.8,186.1 281.6,190.5 290.1,197.2C295,201 298.7,200.8 304.2,196.7C315.2,188.2 333.23,179.922 344.73,177.422C348.03,176.622 350,176.254 352,175.9C358.4,174.3 373,174.9 381,177C391.8,180 401,183.6 406.6,187.2C414.8,192.3 425.4,200.6 429.1,204.7C438.1,214.6 446.3,230.232 449,243.132C450.445,247.467 451.009,252.754 451.313,255.688C452.079,263.069 450.6,282.3 448.1,285.4C447.3,286.3 445.5,287 444,287C439,287 438.5,285.1 438.8,269.6C439.2,252.6 437.1,242.1 430.6,229.5C425.7,219.9 414.7,207.9 404.5,201C389.3,190.7 380.9,188 364.8,188C352.6,188 344.9,189.4 332.8,194C326.2,196.4 312,205.7 306,211.5C303.5,213.9 300.3,216.2 298.9,216.5C295.8,217.3 291.5,215.4 288.5,212C283.3,206.2 262,193.9 251,190.5C247.9,189.5 239.8,188.4 232.5,188C225.4,187.5 218.547,186.528 216.917,186.413C214.444,186.239 213.4,186.6 207.5,192.8C198.6,202.2 192,210.8 192,213.1C192,216.5 185.8,234.4 182.4,241C173.4,258.1 152.7,278.9 137,286.6C118.7,295.5 108.8,298 91.2,298C78.7,298 74.465,297.591 57.883,294.785C45.883,293.285 30.6,290.6 29,292.5C26.7,295.2 29.8,335.7 33.9,355.8C42.2,397.2 62.2,438.7 90,472.5C130.3,521.6 188.4,556.1 249,566.9C252.6,567.6 257.8,568.5 260.5,569C269.2,570.6 280.9,571.3 300,571.3C337.3,571.3 366.8,565.9 397.5,553.5C422.7,543.2 428.6,540.2 451.2,525.2C469.1,513.4 472.3,510.7 490.3,493C509.9,473.9 527.6,450.7 537,432C539.914,427.629 542.1,422.3 543.1,420.8C546.7,415.7 556,391.8 556,387.6C556,386.2 555.6,384.9 555.1,384.6C554.3,384.1 545.9,386.7 535.2,390.9C532.4,392.1 521.1,397.5 510.2,402.9L490.5,412.8L469.5,434.4C400.2,505.7 402.6,503.6 388.3,508.5C382.3,510.6 361.9,514.6 340.2,517.9C331.2,519.3 300.4,519.3 291.3,518C287.5,517.5 276.9,516.5 267.5,515.9C232.5,513.6 228.4,513.2 223.2,512C215.6,510.3 214.3,507.9 216,499.3C216.702,495.732 219.765,493.123 219.517,492.078C219.341,491.337 217.043,491.174 215.787,490.9C214.595,490.639 212.797,490.135 211.9,490C206.56,489.198 204,477.8 207.9,470.1C210.3,465.4 211.6,464.4 220.3,460C224.217,458.07 227.294,457.671 228.824,455.8C229.988,454.375 229.714,451.872 231.4,448.5C234.8,441.9 236.3,440 240.1,437.7C246,434.1 261.8,431.1 265.5,432.8C270.9,435.3 269,444 263,444C256.8,444 248.6,446.9 245.7,450.1C243.3,452.7 243.1,453.4 244.2,454.7C245.3,456.1 249,456.2 275.2,455.8C295.8,455.4 305.2,455.6 305.9,456.3C307.6,458 307.2,463.6 305.4,465.1C303,467.1 291,468 256.8,468.8C229.1,469.5 227,469.6 224.4,471.6C220.4,474.5 219.3,476.7 220.8,478.2C222.5,479.9 272.6,479.8 290,478.1C296.9,477.4 306.1,476.5 310.5,476.2L313.867,476.099C314.493,476.116 315.131,476.17 315.649,476.401C315.864,476.497 316.073,476.578 316.268,476.714C316.734,477.041 317.118,477.519 317.474,477.958C317.693,478.227 317.94,478.709 318.099,479.021C318.388,479.591 318.463,479.961 318.64,480.571C318.765,480.996 318.871,481.646 318.871,482.094C318.871,482.57 318.721,483.604 318.64,483.785C316.879,487.709 312.8,488.2 294.2,489.8C276.2,491.3 266.9,491.5 248.3,490.8C238.9,490.5 234.8,491.9 232.1,496.2C229.6,500.2 232.9,501.1 257.5,503.1C264.7,503.7 274.6,504.5 279.5,505C284.5,505.4 294.9,506.3 302.6,506.9C310.4,507.4 317.2,508 317.6,508.1C320.588,508.1 336.5,506.9 355,503.993C359.1,503.093 375.6,499.4 378.2,498.9C385.9,497.6 396.8,491.3 403.2,484.5C406.3,481.2 421,466.1 435.7,450.9C450.4,435.7 464.9,420.5 467.9,417.1C475,409 483.2,402.8 496,395.9C501.8,392.8 509.4,388.7 513,386.7C516.6,384.8 528.3,379.8 539,375.6C549.7,371.4 559.5,367.5 560.8,367C563.6,365.8 564.4,363.7 566.4,351.9C567.3,346.8 568.5,340 569,336.9C569.6,333.9 571.801,317.5 571.778,315C572.33,311.413 572.1,308.8 571.1,307.6C569.4,305.6 568.4,305.6 557.5,308.4C549,310.6 534.2,313.5 518.5,316.1C511.1,317.3 498.1,316.8 489,315C469.8,311.2 455.6,313 437.6,321.4C410.4,334.2 389.6,359.6 383.4,387.9C381.5,396.3 380.2,398.7 372.1,407.6C369,411 363.6,417.2 360,421.5C356.4,425.7 351.9,431 350,433.3C344.8,439.5 339.9,445.8 335.2,452.4C331.4,457.7 331,458.9 331,464.2C331,474.8 334.3,476.7 341.5,470.2C343.8,468.2 348.3,464.5 351.5,462C354.7,459.5 358.9,456.1 360.9,454.4C372.2,444.6 384.6,435.5 393,430.9C398.2,428 405.4,423.9 408.9,421.8C412.5,419.7 416.6,418 418,418C421.5,418 424.2,421.1 423.8,424.6C423.5,427.4 423.5,427.4 399.5,441.4C391.3,446.1 388.1,448.4 378.2,456.5C369.6,463.5 354.2,476.1 344.2,484.2C335.1,491.7 331.6,492 325.9,486C324.498,484.533 322.828,482.696 322.721,482.559C322.583,482.381 321.622,481.141 321.38,480.797C320.912,480.132 320.414,479.583 320.023,478.87C319.82,478.5 319.655,478.092 319.515,477.719Z" style="fill:rgb(249,159,81);"/>
            </g>
            <path d="M1459,3146C1445,3116 1458,3050 1503,2932C1546,2817 1618,2698 1712,2585C1817,2459 2097,2194 2264,2063C2287,2045 2326,2013 2352,1993C2377,1972 2434,1928 2477,1896C2520,1863 2576,1818 2601,1796C2627,1773 2683,1726 2725,1690C2767,1654 2825,1606 2852,1582C2946,1501 2975,1501 3075,1582C3118,1617 3173,1661 3199,1681C3274,1740 3285,1757 3281,1812C3280,1836 3244,1853 3213,1845C3199,1842 3162,1816 3131,1787C3044,1706 2993,1670 2967,1670C2954,1670 2924,1685 2902,1703C2833,1758 2768,1812 2695,1876C2634,1929 2536,2010 2387,2129C2293,2204 2090,2384 1963,2505C1765,2693 1630,2894 1585,3067C1563,3150 1547,3170 1503,3170C1477,3170 1467,3164 1459,3146Z" style="fill:rgb(249,159,81);fill-rule:nonzero;"/>
        </g>
    </g>
</svg>
